EastSyriacNohadra-Regular.ufo
<glyph name="semicolon" format="2">
  <advance width="316"/>
  <unicode hex="003B"/>
  <note>
semicolon
</note>
  <outline>
    <contour>
      <point x="93" y="-202" type="curve"/>
      <point x="191" y="-126"/>
      <point x="240" y="-40"/>
      <point x="240" y="57" type="curve" smooth="yes"/>
      <point x="240" y="83"/>
      <point x="233" y="105"/>
      <point x="219" y="123" type="curve" smooth="yes"/>
      <point x="204" y="144"/>
      <point x="183" y="154"/>
      <point x="158" y="154" type="curve" smooth="yes"/>
      <point x="115" y="154"/>
      <point x="80" y="117"/>
      <point x="80" y="74" type="curve" smooth="yes"/>
      <point x="80" y="31"/>
      <point x="100" y="4"/>
      <point x="140" y="-7" type="curve"/>
      <point x="140" y="-44"/>
      <point x="117" y="-74"/>
      <point x="72" y="-95" type="curve"/>
      <point x="86" y="-104"/>
      <point x="93" y="-140"/>
    </contour>
    <contour>
      <point x="158" y="406" type="curve" smooth="yes"/>
      <point x="202" y="406"/>
      <point x="236" y="440"/>
      <point x="236" y="484" type="curve" smooth="yes"/>
      <point x="236" y="525"/>
      <point x="201" y="560"/>
      <point x="158" y="560" type="curve" smooth="yes"/>
      <point x="117" y="560"/>
      <point x="82" y="525"/>
      <point x="82" y="484" type="curve" smooth="yes"/>
      <point x="82" y="441"/>
      <point x="115" y="406"/>
    </contour>
  </outline>
</glyph>
<glyph name="question" format="2">
  <advance width="693"/>
  <unicode hex="003F"/>
  <note>
question
</note>
  <outline>
    <contour>
      <point x="329" y="267" type="curve" smooth="yes"/>
      <point x="351" y="267"/>
      <point x="361" y="300"/>
      <point x="359" y="367" type="curve"/>
      <point x="437" y="400"/>
      <point x="491" y="429"/>
      <point x="521" y="452" type="curve" smooth="yes"/>
      <point x="576" y="494"/>
      <point x="603" y="545"/>
      <point x="603" y="605" type="curve" smooth="yes"/>
      <point x="603" y="757"/>
      <point x="492" y="857"/>
      <point x="339" y="857" type="curve" smooth="yes"/>
      <point x="276" y="857"/>
      <point x="191" y="833"/>
      <point x="84" y="786" type="curve"/>
      <point x="84" y="685" type="line" smooth="yes"/>
      <point x="84" y="658"/>
      <point x="94" y="645"/>
      <point x="114" y="645" type="curve" smooth="yes"/>
      <point x="132" y="645"/>
      <point x="142" y="659"/>
      <point x="145" y="686" type="curve"/>
      <point x="144" y="746" type="line"/>
      <point x="213" y="780"/>
      <point x="277" y="797"/>
      <point x="334" y="797" type="curve" smooth="yes"/>
      <point x="450" y="797"/>
      <point x="544" y="717"/>
      <point x="544" y="604" type="curve" smooth="yes"/>
      <point x="544" y="533"/>
      <point x="462" y="468"/>
      <point x="298" y="407" type="curve"/>
      <point x="298" y="307" type="line" smooth="yes"/>
      <point x="298" y="280"/>
      <point x="308" y="267"/>
    </contour>
    <contour>
      <point x="297" y="-21" type="curve" smooth="yes"/>
      <point x="357" y="-21" type="line" smooth="yes"/>
      <point x="398" y="-21"/>
      <point x="432" y="13"/>
      <point x="432" y="54" type="curve" smooth="yes"/>
      <point x="432" y="94"/>
      <point x="398" y="128"/>
      <point x="357" y="128" type="curve" smooth="yes"/>
      <point x="297" y="128" type="line" smooth="yes"/>
      <point x="256" y="128"/>
      <point x="223" y="94"/>
      <point x="223" y="53" type="curve" smooth="yes"/>
      <point x="223" y="13"/>
      <point x="257" y="-21"/>
    </contour>
  </outline>
</glyph>
<glyph name="B" format="2">
  <advance width="1284"/>
  <unicode hex="0042"/>
  <note>
B
</note>
  <outline>
    <contour>
      <point x="206" y="-1" type="curve" smooth="yes"/>
      <point x="792" y="0" type="line" smooth="yes"/>
      <point x="884" y="0"/>
      <point x="963" y="30"/>
      <point x="1030" y="91" type="curve" smooth="yes"/>
      <point x="1099" y="154"/>
      <point x="1134" y="230"/>
      <point x="1134" y="321" type="curve" smooth="yes"/>
      <point x="1134" y="458"/>
      <point x="1050" y="557"/>
      <point x="881" y="618" type="curve"/>
      <point x="991" y="681"/>
      <point x="1046" y="764"/>
      <point x="1046" y="867" type="curve" smooth="yes"/>
      <point x="1046" y="958"/>
      <point x="1009" y="1033"/>
      <point x="935" y="1090" type="curve" smooth="yes"/>
      <point x="867" y="1143"/>
      <point x="786" y="1170"/>
      <point x="692" y="1170" type="curve" smooth="yes"/>
      <point x="206" y="1171" type="line" smooth="yes"/>
      <point x="169" y="1171"/>
      <point x="150" y="1157"/>
      <point x="150" y="1129" type="curve" smooth="yes"/>
      <point x="150" y="1100"/>
      <point x="169" y="1086"/>
      <point x="206" y="1086" type="curve" smooth="yes"/>
      <point x="277" y="1086" type="line"/>
      <point x="277" y="84" type="line"/>
      <point x="206" y="84" type="line" smooth="yes"/>
      <point x="169" y="84"/>
      <point x="150" y="70"/>
      <point x="150" y="41" type="curve" smooth="yes"/>
      <point x="150" y="13"/>
      <point x="169" y="-1"/>
    </contour>
    <contour>
      <point x="361" y="84" type="line"/>
      <point x="361" y="565" type="line"/>
      <point x="663" y="565" type="line" smooth="yes"/>
      <point x="830" y="565"/>
      <point x="944" y="524"/>
      <point x="1005" y="443" type="curve" smooth="yes"/>
      <point x="1034" y="403"/>
      <point x="1049" y="362"/>
      <point x="1049" y="319" type="curve" smooth="yes"/>
      <point x="1049" y="251"/>
      <point x="1022" y="194"/>
      <point x="967" y="149" type="curve" smooth="yes"/>
      <point x="916" y="106"/>
      <point x="855" y="84"/>
      <point x="786" y="84" type="curve" smooth="yes"/>
    </contour>
    <contour>
      <point x="361" y="650" type="line"/>
      <point x="361" y="1086" type="line"/>
      <point x="694" y="1086" type="line" smooth="yes"/>
      <point x="761" y="1086"/>
      <point x="820" y="1068"/>
      <point x="872" y="1031" type="curve" smooth="yes"/>
      <point x="931" y="990"/>
      <point x="961" y="938"/>
      <point x="961" y="874" type="curve" smooth="yes"/>
      <point x="961" y="800"/>
      <point x="927" y="743"/>
      <point x="860" y="702" type="curve" smooth="yes"/>
      <point x="804" y="667"/>
      <point x="737" y="650"/>
      <point x="658" y="650" type="curve" smooth="yes"/>
    </contour>
  </outline>
</glyph>
<glyph name="K" format="2">
  <advance width="1320"/>
  <unicode hex="004B"/>
  <note>
K
</note>
  <outline>
    <contour>
      <point x="187" y="-1" type="curve" smooth="yes"/>
      <point x="413" y="-1" type="line" smooth="yes"/>
      <point x="450" y="-1"/>
      <point x="469" y="13"/>
      <point x="469" y="41" type="curve" smooth="yes"/>
      <point x="469" y="70"/>
      <point x="450" y="84"/>
      <point x="413" y="84" type="curve" smooth="yes"/>
      <point x="342" y="84" type="line"/>
      <point x="342" y="458" type="line"/>
      <point x="511" y="610" type="line"/>
      <point x="919" y="85" type="line"/>
      <point x="848" y="85" type="line" smooth="yes"/>
      <point x="811" y="85"/>
      <point x="792" y="71"/>
      <point x="792" y="42" type="curve" smooth="yes"/>
      <point x="792" y="14"/>
      <point x="811" y="0"/>
      <point x="848" y="0" type="curve" smooth="yes"/>
      <point x="1114" y="-1" type="line" smooth="yes"/>
      <point x="1151" y="-1"/>
      <point x="1170" y="13"/>
      <point x="1170" y="41" type="curve" smooth="yes"/>
      <point x="1170" y="70"/>
      <point x="1151" y="84"/>
      <point x="1114" y="84" type="curve" smooth="yes"/>
      <point x="1043" y="84" type="line"/>
      <point x="581" y="673" type="line"/>
      <point x="1043" y="1086" type="line"/>
      <point x="1114" y="1086" type="line" smooth="yes"/>
      <point x="1151" y="1086"/>
      <point x="1170" y="1100"/>
      <point x="1170" y="1129" type="curve" smooth="yes"/>
      <point x="1170" y="1157"/>
      <point x="1151" y="1171"/>
      <point x="1114" y="1171" type="curve" smooth="yes"/>
      <point x="851" y="1171" type="line" smooth="yes"/>
      <point x="814" y="1171"/>
      <point x="795" y="1157"/>
      <point x="795" y="1129" type="curve" smooth="yes"/>
      <point x="795" y="1100"/>
      <point x="814" y="1086"/>
      <point x="851" y="1086" type="curve" smooth="yes"/>
      <point x="922" y="1086" type="line"/>
      <point x="342" y="569" type="line"/>
      <point x="342" y="1086" type="line"/>
      <point x="413" y="1086" type="line" smooth="yes"/>
      <point x="450" y="1086"/>
      <point x="469" y="1100"/>
      <point x="469" y="1129" type="curve" smooth="yes"/>
      <point x="469" y="1157"/>
      <point x="450" y="1171"/>
      <point x="413" y="1171" type="curve" smooth="yes"/>
      <point x="187" y="1171" type="line" smooth="yes"/>
      <point x="150" y="1171"/>
      <point x="131" y="1157"/>
      <point x="131" y="1129" type="curve" smooth="yes"/>
      <point x="131" y="1100"/>
      <point x="150" y="1086"/>
      <point x="187" y="1086" type="curve" smooth="yes"/>
      <point x="258" y="1086" type="line"/>
      <point x="258" y="84" type="line"/>
      <point x="187" y="84" type="line" smooth="yes"/>
      <point x="150" y="84"/>
      <point x="131" y="70"/>
      <point x="131" y="41" type="curve" smooth="yes"/>
      <point x="131" y="13"/>
      <point x="150" y="-1"/>
    </contour>
  </outline>
</glyph>
<glyph name="T" format="2">
  <advance width="1241"/>
  <unicode hex="0054"/>
  <note>
T
</note>
  <outline>
    <contour>
      <point x="508" y="-2" type="curve" smooth="yes"/>
      <point x="734" y="-2" type="line" smooth="yes"/>
      <point x="771" y="-2"/>
      <point x="790" y="12"/>
      <point x="790" y="40" type="curve" smooth="yes"/>
      <point x="790" y="69"/>
      <point x="771" y="83"/>
      <point x="734" y="83" type="curve" smooth="yes"/>
      <point x="663" y="83" type="line"/>
      <point x="663" y="1085" type="line"/>
      <point x="1007" y="1085" type="line"/>
      <point x="1006" y="1014" type="line" smooth="yes"/>
      <point x="1005" y="977"/>
      <point x="1020" y="958"/>
      <point x="1049" y="958" type="curve" smooth="yes"/>
      <point x="1077" y="958"/>
      <point x="1091" y="977"/>
      <point x="1091" y="1014" type="curve" smooth="yes"/>
      <point x="1091" y="1169" type="line"/>
      <point x="150" y="1169" type="line"/>
      <point x="150" y="1014" type="line" smooth="yes"/>
      <point x="150" y="977"/>
      <point x="164" y="958"/>
      <point x="192" y="958" type="curve" smooth="yes"/>
      <point x="221" y="958"/>
      <point x="236" y="977"/>
      <point x="235" y="1014" type="curve" smooth="yes"/>
      <point x="234" y="1085" type="line"/>
      <point x="578" y="1085" type="line"/>
      <point x="579" y="83" type="line"/>
      <point x="508" y="83" type="line" smooth="yes"/>
      <point x="471" y="83"/>
      <point x="452" y="69"/>
      <point x="452" y="40" type="curve" smooth="yes"/>
      <point x="452" y="12"/>
      <point x="471" y="-2"/>
    </contour>
  </outline>
</glyph>
<glyph name="asciicircum" format="2">
  <advance width="1073"/>
  <unicode hex="005E"/>
  <note>
asciicircum
</note>
  <outline>
    <contour>
      <point x="193" y="735" type="curve" smooth="yes"/>
      <point x="206" y="735"/>
      <point x="220" y="744"/>
      <point x="234" y="762" type="curve" smooth="yes"/>
      <point x="536" y="1146" type="line"/>
      <point x="838" y="762" type="line" smooth="yes"/>
      <point x="851" y="745"/>
      <point x="865" y="736"/>
      <point x="880" y="736" type="curve" smooth="yes"/>
      <point x="909" y="736"/>
      <point x="923" y="750"/>
      <point x="923" y="778" type="curve" smooth="yes"/>
      <point x="923" y="787"/>
      <point x="917" y="800"/>
      <point x="905" y="815" type="curve" smooth="yes"/>
      <point x="536" y="1278" type="line"/>
      <point x="168" y="815" type="line" smooth="yes"/>
      <point x="156" y="800"/>
      <point x="150" y="787"/>
      <point x="150" y="778" type="curve" smooth="yes"/>
      <point x="150" y="749"/>
      <point x="164" y="735"/>
    </contour>
  </outline>
</glyph>
<glyph name="underscore" format="2">
  <advance width="1229"/>
  <unicode hex="005F"/>
  <note>
underscore
</note>
  <outline>
    <contour>
      <point x="53" y="-561" type="curve" smooth="yes"/>
      <point x="1176" y="-561" type="line" smooth="yes"/>
      <point x="1211" y="-561"/>
      <point x="1229" y="-547"/>
      <point x="1229" y="-519" type="curve" smooth="yes"/>
      <point x="1229" y="-491"/>
      <point x="1211" y="-477"/>
      <point x="1176" y="-477" type="curve" smooth="yes"/>
      <point x="53" y="-477" type="line" smooth="yes"/>
      <point x="18" y="-477"/>
      <point x="0" y="-491"/>
      <point x="0" y="-519" type="curve" smooth="yes"/>
      <point x="0" y="-547"/>
      <point x="18" y="-561"/>
    </contour>
  </outline>
</glyph>
<glyph name="b" format="2">
  <advance width="1229"/>
  <unicode hex="0062"/>
  <note>
b
</note>
  <outline>
    <contour>
      <point x="704" y="-45" type="curve" smooth="yes"/>
      <point x="939" y="-45"/>
      <point x="1127" y="140"/>
      <point x="1127" y="375" type="curve" smooth="yes"/>
      <point x="1127" y="608"/>
      <point x="939" y="794"/>
      <point x="704" y="794" type="curve" smooth="yes"/>
      <point x="559" y="794"/>
      <point x="444" y="735"/>
      <point x="358" y="617" type="curve"/>
      <point x="357" y="1249" type="line"/>
      <point x="202" y="1249" type="line" smooth="yes"/>
      <point x="165" y="1249"/>
      <point x="146" y="1235"/>
      <point x="146" y="1207" type="curve" smooth="yes"/>
      <point x="146" y="1178"/>
      <point x="165" y="1164"/>
      <point x="202" y="1164" type="curve" smooth="yes"/>
      <point x="273" y="1164" type="line"/>
      <point x="273" y="85" type="line"/>
      <point x="202" y="85" type="line" smooth="yes"/>
      <point x="165" y="85"/>
      <point x="146" y="71"/>
      <point x="146" y="42" type="curve" smooth="yes"/>
      <point x="146" y="14"/>
      <point x="165" y="0"/>
      <point x="202" y="0" type="curve" smooth="yes"/>
      <point x="357" y="0" type="line"/>
      <point x="357" y="133" type="line"/>
      <point x="443" y="14"/>
      <point x="559" y="-45"/>
    </contour>
    <contour>
      <point x="703" y="32" type="curve" smooth="yes"/>
      <point x="511" y="32"/>
      <point x="356" y="183"/>
      <point x="356" y="375" type="curve" smooth="yes"/>
      <point x="356" y="566"/>
      <point x="512" y="718"/>
      <point x="703" y="718" type="curve" smooth="yes"/>
      <point x="895" y="718"/>
      <point x="1051" y="567"/>
      <point x="1051" y="375" type="curve" smooth="yes"/>
      <point x="1051" y="183"/>
      <point x="896" y="32"/>
    </contour>
  </outline>
</glyph>
<glyph name="c" format="2">
  <advance width="1094"/>
  <unicode hex="0063"/>
  <note>
c
</note>
  <outline>
    <contour>
      <point x="569" y="-36" type="curve" smooth="yes"/>
      <point x="690" y="-36"/>
      <point x="799" y="-4"/>
      <point x="896" y="60" type="curve" smooth="yes"/>
      <point x="957" y="100"/>
      <point x="988" y="133"/>
      <point x="988" y="159" type="curve" smooth="yes"/>
      <point x="988" y="183"/>
      <point x="976" y="195"/>
      <point x="951" y="195" type="curve" smooth="yes"/>
      <point x="943" y="195"/>
      <point x="932" y="189"/>
      <point x="918" y="177" type="curve" smooth="yes"/>
      <point x="814" y="85"/>
      <point x="699" y="39"/>
      <point x="572" y="39" type="curve" smooth="yes"/>
      <point x="371" y="39"/>
      <point x="226" y="177"/>
      <point x="226" y="378" type="curve" smooth="yes"/>
      <point x="226" y="583"/>
      <point x="365" y="725"/>
      <point x="570" y="725" type="curve" smooth="yes"/>
      <point x="659" y="725"/>
      <point x="730" y="706"/>
      <point x="782" y="668" type="curve" smooth="yes"/>
      <point x="825" y="637"/>
      <point x="851" y="604"/>
      <point x="861" y="570" type="curve" smooth="yes"/>
      <point x="879" y="511" type="line"/>
      <point x="886" y="504"/>
      <point x="894" y="501"/>
      <point x="904" y="501" type="curve" smooth="yes"/>
      <point x="930" y="501"/>
      <point x="943" y="518"/>
      <point x="943" y="552" type="curve" smooth="yes"/>
      <point x="943" y="724" type="line" smooth="yes"/>
      <point x="943" y="758"/>
      <point x="930" y="775"/>
      <point x="904" y="775" type="curve" smooth="yes"/>
      <point x="880" y="775"/>
      <point x="868" y="760"/>
      <point x="867" y="731" type="curve" smooth="yes"/>
      <point x="867" y="698" type="line"/>
      <point x="788" y="767"/>
      <point x="690" y="802"/>
      <point x="574" y="802" type="curve" smooth="yes"/>
      <point x="329" y="802"/>
      <point x="150" y="622"/>
      <point x="150" y="377" type="curve" smooth="yes"/>
      <point x="150" y="134"/>
      <point x="325" y="-36"/>
    </contour>
  </outline>
</glyph>
<glyph name="m" format="2">
  <advance width="1878"/>
  <unicode hex="006D"/>
  <note>
m
</note>
  <outline>
    <contour>
      <point x="205" y="-1" type="curve" smooth="yes"/>
      <point x="431" y="-1" type="line" smooth="yes"/>
      <point x="468" y="-1"/>
      <point x="487" y="13"/>
      <point x="487" y="41" type="curve" smooth="yes"/>
      <point x="487" y="70"/>
      <point x="468" y="84"/>
      <point x="431" y="84" type="curve" smooth="yes"/>
      <point x="360" y="84" type="line"/>
      <point x="359" y="507" type="line"/>
      <point x="436" y="598"/>
      <point x="478" y="645"/>
      <point x="483" y="650" type="curve" smooth="yes"/>
      <point x="527" y="688"/>
      <point x="585" y="707"/>
      <point x="657" y="707" type="curve" smooth="yes"/>
      <point x="724" y="707"/>
      <point x="779" y="689"/>
      <point x="824" y="652" type="curve" smooth="yes"/>
      <point x="872" y="613"/>
      <point x="896" y="560"/>
      <point x="896" y="495" type="curve" smooth="yes"/>
      <point x="897" y="84" type="line"/>
      <point x="826" y="84" type="line" smooth="yes"/>
      <point x="789" y="84"/>
      <point x="770" y="70"/>
      <point x="770" y="41" type="curve" smooth="yes"/>
      <point x="770" y="13"/>
      <point x="789" y="-1"/>
      <point x="826" y="-1" type="curve" smooth="yes"/>
      <point x="1052" y="-1" type="line" smooth="yes"/>
      <point x="1089" y="-1"/>
      <point x="1108" y="13"/>
      <point x="1108" y="41" type="curve" smooth="yes"/>
      <point x="1108" y="70"/>
      <point x="1089" y="84"/>
      <point x="1052" y="84" type="curve" smooth="yes"/>
      <point x="981" y="84" type="line"/>
      <point x="980" y="509" type="line" smooth="yes"/>
      <point x="980" y="523"/>
      <point x="979" y="537"/>
      <point x="976" y="550" type="curve"/>
      <point x="1071" y="655"/>
      <point x="1171" y="707"/>
      <point x="1277" y="707" type="curve" smooth="yes"/>
      <point x="1344" y="707"/>
      <point x="1399" y="689"/>
      <point x="1444" y="652" type="curve" smooth="yes"/>
      <point x="1492" y="613"/>
      <point x="1516" y="560"/>
      <point x="1516" y="495" type="curve" smooth="yes"/>
      <point x="1517" y="84" type="line"/>
      <point x="1446" y="84" type="line" smooth="yes"/>
      <point x="1409" y="84"/>
      <point x="1390" y="70"/>
      <point x="1390" y="41" type="curve" smooth="yes"/>
      <point x="1390" y="13"/>
      <point x="1409" y="-1"/>
      <point x="1446" y="-1" type="curve" smooth="yes"/>
      <point x="1672" y="-1" type="line" smooth="yes"/>
      <point x="1709" y="-1"/>
      <point x="1728" y="13"/>
      <point x="1728" y="41" type="curve" smooth="yes"/>
      <point x="1728" y="70"/>
      <point x="1709" y="84"/>
      <point x="1672" y="84" type="curve" smooth="yes"/>
      <point x="1601" y="84" type="line"/>
      <point x="1600" y="509" type="line" smooth="yes"/>
      <point x="1600" y="593"/>
      <point x="1567" y="662"/>
      <point x="1500" y="716" type="curve" smooth="yes"/>
      <point x="1437" y="767"/>
      <point x="1363" y="792"/>
      <point x="1278" y="792" type="curve" smooth="yes"/>
      <point x="1157" y="792"/>
      <point x="1045" y="741"/>
      <point x="943" y="639" type="curve"/>
      <point x="882" y="741"/>
      <point x="787" y="792"/>
      <point x="658" y="792" type="curve" smooth="yes"/>
      <point x="588" y="792"/>
      <point x="531" y="779"/>
      <point x="488" y="752" type="curve" smooth="yes"/>
      <point x="465" y="737"/>
      <point x="422" y="698"/>
      <point x="359" y="635" type="curve"/>
      <point x="359" y="762" type="line"/>
      <point x="204" y="762" type="line" smooth="yes"/>
      <point x="167" y="762"/>
      <point x="148" y="748"/>
      <point x="148" y="720" type="curve" smooth="yes"/>
      <point x="148" y="691"/>
      <point x="167" y="677"/>
      <point x="204" y="677" type="curve" smooth="yes"/>
      <point x="275" y="677" type="line"/>
      <point x="276" y="84" type="line"/>
      <point x="205" y="84" type="line" smooth="yes"/>
      <point x="168" y="84"/>
      <point x="149" y="70"/>
      <point x="149" y="41" type="curve" smooth="yes"/>
      <point x="149" y="13"/>
      <point x="168" y="-1"/>
    </contour>
  </outline>
</glyph>
<glyph name="n" format="2">
  <advance width="1282"/>
  <unicode hex="006E"/>
  <note>
n
</note>
  <outline>
    <contour>
      <point x="209" y="-1" type="curve" smooth="yes"/>
      <point x="435" y="-1" type="line" smooth="yes"/>
      <point x="472" y="-1"/>
      <point x="491" y="13"/>
      <point x="491" y="41" type="curve" smooth="yes"/>
      <point x="491" y="70"/>
      <point x="472" y="84"/>
      <point x="435" y="84" type="curve" smooth="yes"/>
      <point x="364" y="84" type="line"/>
      <point x="363" y="507" type="line"/>
      <point x="424" y="578"/>
      <point x="469" y="625"/>
      <point x="500" y="648" type="curve" smooth="yes"/>
      <point x="553" y="687"/>
      <point x="613" y="707"/>
      <point x="681" y="707" type="curve" smooth="yes"/>
      <point x="748" y="707"/>
      <point x="803" y="689"/>
      <point x="848" y="652" type="curve" smooth="yes"/>
      <point x="896" y="613"/>
      <point x="920" y="560"/>
      <point x="920" y="495" type="curve" smooth="yes"/>
      <point x="921" y="84" type="line"/>
      <point x="850" y="84" type="line" smooth="yes"/>
      <point x="813" y="84"/>
      <point x="794" y="70"/>
      <point x="794" y="41" type="curve" smooth="yes"/>
      <point x="794" y="13"/>
      <point x="813" y="-1"/>
      <point x="850" y="-1" type="curve" smooth="yes"/>
      <point x="1076" y="-1" type="line" smooth="yes"/>
      <point x="1113" y="-1"/>
      <point x="1132" y="13"/>
      <point x="1132" y="41" type="curve" smooth="yes"/>
      <point x="1132" y="70"/>
      <point x="1113" y="84"/>
      <point x="1076" y="84" type="curve" smooth="yes"/>
      <point x="1005" y="84" type="line"/>
      <point x="1004" y="509" type="line" smooth="yes"/>
      <point x="1004" y="593"/>
      <point x="971" y="662"/>
      <point x="904" y="716" type="curve" smooth="yes"/>
      <point x="841" y="767"/>
      <point x="767" y="792"/>
      <point x="682" y="792" type="curve" smooth="yes"/>
      <point x="573" y="792"/>
      <point x="466" y="740"/>
      <point x="363" y="635" type="curve"/>
      <point x="363" y="762" type="line"/>
      <point x="208" y="762" type="line" smooth="yes"/>
      <point x="171" y="762"/>
      <point x="152" y="748"/>
      <point x="152" y="720" type="curve" smooth="yes"/>
      <point x="152" y="691"/>
      <point x="171" y="677"/>
      <point x="208" y="677" type="curve" smooth="yes"/>
      <point x="279" y="677" type="line"/>
      <point x="280" y="84" type="line"/>
      <point x="209" y="84" type="line" smooth="yes"/>
      <point x="172" y="84"/>
      <point x="153" y="70"/>
      <point x="153" y="41" type="curve" smooth="yes"/>
      <point x="153" y="13"/>
      <point x="172" y="-1"/>
    </contour>
  </outline>
</glyph>
<glyph name="o" format="2">
  <advance width="1146"/>
  <unicode hex="006F"/>
  <note>
o
</note>
  <outline>
    <contour>
      <point x="574" y="-32" type="curve" smooth="yes"/>
      <point x="809" y="-32"/>
      <point x="997" y="154"/>
      <point x="997" y="387" type="curve" smooth="yes"/>
      <point x="997" y="622"/>
      <point x="809" y="807"/>
      <point x="574" y="807" type="curve" smooth="yes"/>
      <point x="339" y="807"/>
      <point x="150" y="622"/>
      <point x="150" y="387" type="curve" smooth="yes"/>
      <point x="150" y="152"/>
      <point x="339" y="-32"/>
    </contour>
    <contour>
      <point x="573" y="44" type="curve" smooth="yes"/>
      <point x="382" y="44"/>
      <point x="226" y="196"/>
      <point x="226" y="387" type="curve" smooth="yes"/>
      <point x="226" y="579"/>
      <point x="381" y="730"/>
      <point x="573" y="730" type="curve" smooth="yes"/>
      <point x="766" y="730"/>
      <point x="921" y="579"/>
      <point x="921" y="387" type="curve" smooth="yes"/>
      <point x="921" y="195"/>
      <point x="765" y="44"/>
    </contour>
  </outline>
</glyph>
<glyph name="w" format="2">
  <advance width="1750"/>
  <unicode hex="0077"/>
  <note>
w
</note>
  <outline>
    <contour>
      <point x="582" y="0" type="line"/>
      <point x="724" y="0" type="line"/>
      <point x="877" y="365" type="line"/>
      <point x="1032" y="0" type="line"/>
      <point x="1174" y="0" type="line"/>
      <point x="1475" y="677" type="line"/>
      <point x="1551" y="676" type="line"/>
      <point x="1585" y="680"/>
      <point x="1602" y="695"/>
      <point x="1602" y="720" type="curve" smooth="yes"/>
      <point x="1602" y="748"/>
      <point x="1584" y="762"/>
      <point x="1549" y="762" type="curve" smooth="yes"/>
      <point x="1310" y="762" type="line" smooth="yes"/>
      <point x="1275" y="762"/>
      <point x="1257" y="748"/>
      <point x="1257" y="720" type="curve" smooth="yes"/>
      <point x="1257" y="695"/>
      <point x="1274" y="680"/>
      <point x="1308" y="676" type="curve"/>
      <point x="1384" y="677" type="line"/>
      <point x="1122" y="84" type="line"/>
      <point x="1085" y="84" type="line"/>
      <point x="923" y="461" type="line"/>
      <point x="831" y="461" type="line"/>
      <point x="672" y="84" type="line"/>
      <point x="635" y="84" type="line"/>
      <point x="367" y="677" type="line"/>
      <point x="443" y="676" type="line"/>
      <point x="477" y="680"/>
      <point x="494" y="695"/>
      <point x="494" y="720" type="curve" smooth="yes"/>
      <point x="494" y="748"/>
      <point x="476" y="762"/>
      <point x="441" y="762" type="curve" smooth="yes"/>
      <point x="203" y="762" type="line" smooth="yes"/>
      <point x="168" y="762"/>
      <point x="150" y="748"/>
      <point x="150" y="720" type="curve" smooth="yes"/>
      <point x="150" y="695"/>
      <point x="167" y="680"/>
      <point x="201" y="676" type="curve"/>
      <point x="277" y="677" type="line"/>
    </contour>
    <contour>
      <point x="443" y="676" type="curve"/>
      <point x="367" y="677" type="line"/>
      <point x="481" y="750" type="line"/>
      <point x="490" y="742"/>
      <point x="494" y="732"/>
      <point x="494" y="720" type="curve" smooth="yes"/>
      <point x="494" y="695"/>
      <point x="477" y="680"/>
    </contour>
    <contour>
      <point x="1551" y="676" type="curve"/>
      <point x="1475" y="677" type="line"/>
      <point x="1589" y="750" type="line"/>
      <point x="1598" y="742"/>
      <point x="1602" y="732"/>
      <point x="1602" y="720" type="curve" smooth="yes"/>
      <point x="1602" y="695"/>
      <point x="1585" y="680"/>
    </contour>
  </outline>
</glyph>
<glyph name="currency" format="2">
  <advance width="1105"/>
  <unicode hex="00A4"/>
  <note>
currency
</note>
  <outline>
    <contour>
      <point x="193" y="199" type="curve" smooth="yes"/>
      <point x="208" y="199"/>
      <point x="235" y="219"/>
      <point x="275" y="259" type="curve" smooth="yes"/>
      <point x="348" y="336" type="line"/>
      <point x="411" y="288"/>
      <point x="481" y="264"/>
      <point x="558" y="264" type="curve" smooth="yes"/>
      <point x="635" y="264"/>
      <point x="705" y="288"/>
      <point x="769" y="336" type="curve"/>
      <point x="841" y="260" type="line" smooth="yes"/>
      <point x="882" y="219"/>
      <point x="909" y="199"/>
      <point x="923" y="199" type="curve" smooth="yes"/>
      <point x="952" y="199"/>
      <point x="966" y="213"/>
      <point x="966" y="241" type="curve" smooth="yes"/>
      <point x="966" y="256"/>
      <point x="946" y="283"/>
      <point x="905" y="324" type="curve" smooth="yes"/>
      <point x="829" y="396" type="line"/>
      <point x="878" y="459"/>
      <point x="902" y="530"/>
      <point x="902" y="609" type="curve" smooth="yes"/>
      <point x="902" y="686"/>
      <point x="878" y="756"/>
      <point x="830" y="819" type="curve"/>
      <point x="906" y="890" type="line" smooth="yes"/>
      <point x="946" y="930"/>
      <point x="966" y="957"/>
      <point x="966" y="972" type="curve" smooth="yes"/>
      <point x="966" y="1001"/>
      <point x="952" y="1015"/>
      <point x="924" y="1015" type="curve" smooth="yes"/>
      <point x="909" y="1015"/>
      <point x="882" y="995"/>
      <point x="842" y="955" type="curve" smooth="yes"/>
      <point x="770" y="879" type="line"/>
      <point x="709" y="928"/>
      <point x="639" y="952"/>
      <point x="559" y="952" type="curve" smooth="yes"/>
      <point x="478" y="952"/>
      <point x="407" y="928"/>
      <point x="346" y="879" type="curve"/>
      <point x="274" y="955" type="line" smooth="yes"/>
      <point x="234" y="995"/>
      <point x="207" y="1015"/>
      <point x="193" y="1015" type="curve" smooth="yes"/>
      <point x="164" y="1015"/>
      <point x="150" y="1001"/>
      <point x="150" y="973" type="curve" smooth="yes"/>
      <point x="150" y="958"/>
      <point x="170" y="931"/>
      <point x="210" y="891" type="curve" smooth="yes"/>
      <point x="286" y="819" type="line"/>
      <point x="238" y="755"/>
      <point x="214" y="685"/>
      <point x="214" y="608" type="curve" smooth="yes"/>
      <point x="214" y="531"/>
      <point x="239" y="461"/>
      <point x="288" y="396" type="curve"/>
      <point x="211" y="324" type="line" smooth="yes"/>
      <point x="170" y="284"/>
      <point x="150" y="257"/>
      <point x="150" y="242" type="curve" smooth="yes"/>
      <point x="150" y="213"/>
      <point x="164" y="199"/>
    </contour>
    <contour>
      <point x="558" y="349" type="curve" smooth="yes"/>
      <point x="414" y="349"/>
      <point x="299" y="464"/>
      <point x="299" y="608" type="curve" smooth="yes"/>
      <point x="299" y="752"/>
      <point x="414" y="868"/>
      <point x="558" y="868" type="curve" smooth="yes"/>
      <point x="703" y="868"/>
      <point x="818" y="753"/>
      <point x="818" y="608" type="curve" smooth="yes"/>
      <point x="818" y="464"/>
      <point x="702" y="349"/>
    </contour>
  </outline>
</glyph>
<glyph name="ordfeminine" format="2">
  <advance width="950"/>
  <unicode hex="00AA"/>
  <note>
ordfeminine
</note>
  <outline>
    <contour>
      <point x="373" y="724" type="curve" smooth="yes"/>
      <point x="456" y="724"/>
      <point x="536" y="751"/>
      <point x="613" y="804" type="curve"/>
      <point x="613" y="744" type="line"/>
      <point x="754" y="744" type="line" smooth="yes"/>
      <point x="787" y="744"/>
      <point x="804" y="757"/>
      <point x="804" y="783" type="curve" smooth="yes"/>
      <point x="804" y="804"/>
      <point x="789" y="817"/>
      <point x="760" y="821" type="curve"/>
      <point x="694" y="821" type="line"/>
      <point x="694" y="1142" type="line" smooth="yes"/>
      <point x="694" y="1196"/>
      <point x="668" y="1239"/>
      <point x="615" y="1270" type="curve" smooth="yes"/>
      <point x="571" y="1295"/>
      <point x="520" y="1308"/>
      <point x="462" y="1308" type="curve" smooth="yes"/>
      <point x="424" y="1308"/>
      <point x="377" y="1302"/>
      <point x="321" y="1289" type="curve" smooth="yes"/>
      <point x="250" y="1272"/>
      <point x="215" y="1253"/>
      <point x="215" y="1230" type="curve" smooth="yes"/>
      <point x="215" y="1204"/>
      <point x="228" y="1191"/>
      <point x="254" y="1191" type="curve" smooth="yes"/>
      <point x="269" y="1191"/>
      <point x="300" y="1198"/>
      <point x="349" y="1211" type="curve" smooth="yes"/>
      <point x="397" y="1224"/>
      <point x="434" y="1231"/>
      <point x="459" y="1231" type="curve" smooth="yes"/>
      <point x="562" y="1231"/>
      <point x="613" y="1201"/>
      <point x="613" y="1142" type="curve" smooth="yes"/>
      <point x="613" y="1076" type="line"/>
      <point x="549" y="1087"/>
      <point x="494" y="1092"/>
      <point x="447" y="1092" type="curve" smooth="yes"/>
      <point x="373" y="1092"/>
      <point x="309" y="1078"/>
      <point x="254" y="1051" type="curve" smooth="yes"/>
      <point x="185" y="1016"/>
      <point x="150" y="964"/>
      <point x="150" y="897" type="curve" smooth="yes"/>
      <point x="150" y="840"/>
      <point x="174" y="796"/>
      <point x="222" y="764" type="curve" smooth="yes"/>
      <point x="263" y="737"/>
      <point x="313" y="724"/>
    </contour>
    <contour>
      <point x="370" y="801" type="curve" smooth="yes"/>
      <point x="277" y="801"/>
      <point x="231" y="833"/>
      <point x="231" y="897" type="curve" smooth="yes"/>
      <point x="231" y="939"/>
      <point x="260" y="971"/>
      <point x="317" y="992" type="curve" smooth="yes"/>
      <point x="359" y="1007"/>
      <point x="405" y="1015"/>
      <point x="455" y="1015" type="curve" smooth="yes"/>
      <point x="517" y="1015"/>
      <point x="569" y="1009"/>
      <point x="612" y="998" type="curve"/>
      <point x="613" y="903" type="line"/>
      <point x="536" y="835"/>
      <point x="455" y="801"/>
    </contour>
  </outline>
</glyph>
<glyph name="paragraph" format="2">
  <advance width="1229"/>
  <unicode hex="00B6"/>
  <note>
paragraph
</note>
  <outline>
    <contour>
      <point x="523" y="-154" type="curve" smooth="yes"/>
      <point x="1006" y="-154" type="line" smooth="yes"/>
      <point x="1043" y="-154"/>
      <point x="1062" y="-140"/>
      <point x="1062" y="-112" type="curve" smooth="yes"/>
      <point x="1062" y="-83"/>
      <point x="1043" y="-69"/>
      <point x="1006" y="-69" type="curve" smooth="yes"/>
      <point x="935" y="-69" type="line"/>
      <point x="933" y="1169" type="line"/>
      <point x="1004" y="1169" type="line" smooth="yes"/>
      <point x="1041" y="1169"/>
      <point x="1060" y="1183"/>
      <point x="1060" y="1212" type="curve" smooth="yes"/>
      <point x="1060" y="1224"/>
      <point x="1056" y="1234"/>
      <point x="1047" y="1242" type="curve"/>
      <point x="1030" y="1249"/>
      <point x="1015" y="1253"/>
      <point x="1004" y="1254" type="curve"/>
      <point x="606" y="1255" type="line" smooth="yes"/>
      <point x="502" y="1255"/>
      <point x="408" y="1231"/>
      <point x="324" y="1184" type="curve" smooth="yes"/>
      <point x="222" y="1127"/>
      <point x="171" y="1050"/>
      <point x="171" y="954" type="curve" smooth="yes"/>
      <point x="171" y="877"/>
      <point x="171" y="844"/>
      <point x="170" y="855" type="curve" smooth="yes"/>
      <point x="172" y="816"/>
      <point x="180" y="784"/>
      <point x="195" y="760" type="curve" smooth="yes"/>
      <point x="267" y="643"/>
      <point x="401" y="577"/>
      <point x="597" y="564" type="curve"/>
      <point x="594" y="-69" type="line"/>
      <point x="523" y="-69" type="line" smooth="yes"/>
      <point x="486" y="-69"/>
      <point x="467" y="-83"/>
      <point x="467" y="-112" type="curve" smooth="yes"/>
      <point x="467" y="-140"/>
      <point x="486" y="-154"/>
    </contour>
    <contour>
      <point x="678" y="-69" type="line"/>
      <point x="676" y="1169" type="line"/>
      <point x="852" y="1169" type="line"/>
      <point x="851" y="-69" type="line"/>
    </contour>
    <contour>
      <point x="597" y="627" type="line"/>
      <point x="520" y="634"/>
      <point x="452" y="657"/>
      <point x="395" y="696" type="curve" smooth="yes"/>
      <point x="326" y="742"/>
      <point x="292" y="801"/>
      <point x="292" y="872" type="curve" smooth="yes"/>
      <point x="292" y="949" type="line" smooth="yes"/>
      <point x="292" y="1019"/>
      <point x="326" y="1074"/>
      <point x="395" y="1113" type="curve" smooth="yes"/>
      <point x="448" y="1143"/>
      <point x="515" y="1162"/>
      <point x="596" y="1169" type="curve"/>
    </contour>
  </outline>
</glyph>
<glyph name="cedilla" format="2">
  <advance width="605"/>
  <unicode hex="00B8"/>
  <note>
cedilla
</note>
  <outline>
    <contour>
      <point x="328" y="-337" type="curve" smooth="yes"/>
      <point x="367" y="-337"/>
      <point x="400" y="-328"/>
      <point x="427" y="-309" type="curve" smooth="yes"/>
      <point x="457" y="-288"/>
      <point x="472" y="-258"/>
      <point x="472" y="-220" type="curve" smooth="yes"/>
      <point x="472" y="-158"/>
      <point x="433" y="-121"/>
      <point x="354" y="-110" type="curve"/>
      <point x="354" y="-7"/>
      <point x="355" y="19"/>
      <point x="357" y="-32" type="curve"/>
      <point x="356" y="7"/>
      <point x="345" y="26"/>
      <point x="324" y="26" type="curve" smooth="yes"/>
      <point x="304" y="26"/>
      <point x="294" y="13"/>
      <point x="294" y="-14" type="curve" smooth="yes"/>
      <point x="294" y="-167" type="line"/>
      <point x="372" y="-167"/>
      <point x="411" y="-184"/>
      <point x="411" y="-218" type="curve" smooth="yes"/>
      <point x="411" y="-257"/>
      <point x="383" y="-277"/>
      <point x="328" y="-277" type="curve" smooth="yes"/>
      <point x="302" y="-277"/>
      <point x="272" y="-269"/>
      <point x="237" y="-254" type="curve" smooth="yes"/>
      <point x="202" y="-239"/>
      <point x="183" y="-232"/>
      <point x="180" y="-232" type="curve" smooth="yes"/>
      <point x="160" y="-232"/>
      <point x="150" y="-242"/>
      <point x="150" y="-262" type="curve" smooth="yes"/>
      <point x="150" y="-284"/>
      <point x="175" y="-303"/>
      <point x="224" y="-318" type="curve" smooth="yes"/>
      <point x="264" y="-331"/>
      <point x="299" y="-337"/>
    </contour>
  </outline>
</glyph>
<glyph name="ordmasculine" format="2">
  <advance width="912"/>
  <unicode hex="00BA"/>
  <note>
ordmasculine
</note>
  <outline>
    <contour>
      <point x="468" y="725" type="curve" smooth="yes"/>
      <point x="553" y="725"/>
      <point x="627" y="752"/>
      <point x="689" y="806" type="curve" smooth="yes"/>
      <point x="754" y="863"/>
      <point x="786" y="933"/>
      <point x="786" y="1017" type="curve" smooth="yes"/>
      <point x="786" y="1101"/>
      <point x="754" y="1171"/>
      <point x="689" y="1228" type="curve" smooth="yes"/>
      <point x="627" y="1282"/>
      <point x="553" y="1309"/>
      <point x="468" y="1309" type="curve" smooth="yes"/>
      <point x="383" y="1309"/>
      <point x="309" y="1282"/>
      <point x="247" y="1228" type="curve" smooth="yes"/>
      <point x="182" y="1171"/>
      <point x="150" y="1101"/>
      <point x="150" y="1017" type="curve" smooth="yes"/>
      <point x="150" y="933"/>
      <point x="182" y="863"/>
      <point x="247" y="806" type="curve" smooth="yes"/>
      <point x="310" y="752"/>
      <point x="383" y="725"/>
    </contour>
    <contour>
      <point x="468" y="802" type="curve" smooth="yes"/>
      <point x="405" y="802"/>
      <point x="350" y="822"/>
      <point x="304" y="861" type="curve" smooth="yes"/>
      <point x="255" y="903"/>
      <point x="231" y="955"/>
      <point x="231" y="1017" type="curve" smooth="yes"/>
      <point x="231" y="1079"/>
      <point x="255" y="1131"/>
      <point x="304" y="1173" type="curve" smooth="yes"/>
      <point x="350" y="1212"/>
      <point x="405" y="1232"/>
      <point x="468" y="1232" type="curve" smooth="yes"/>
      <point x="531" y="1232"/>
      <point x="586" y="1212"/>
      <point x="632" y="1173" type="curve" smooth="yes"/>
      <point x="681" y="1132"/>
      <point x="705" y="1080"/>
      <point x="705" y="1017" type="curve" smooth="yes"/>
      <point x="705" y="955"/>
      <point x="681" y="903"/>
      <point x="632" y="861" type="curve" smooth="yes"/>
      <point x="586" y="822"/>
      <point x="531" y="802"/>
    </contour>
  </outline>
</glyph>
<glyph name="threequarters" format="2">
  <advance width="1280"/>
  <unicode hex="00BE"/>
  <note>
threequarters
</note>
  <outline>
    <contour>
      <point x="487" y="98" type="curve" smooth="yes"/>
      <point x="495" y="103"/>
      <point x="503" y="113"/>
      <point x="510" y="128" type="curve" smooth="yes"/>
      <point x="1008" y="1096" type="line" smooth="yes"/>
      <point x="1019" y="1118"/>
      <point x="1021" y="1136"/>
      <point x="1013" y="1149" type="curve" smooth="yes"/>
      <point x="999" y="1174"/>
      <point x="980" y="1179"/>
      <point x="956" y="1165" type="curve" smooth="yes"/>
      <point x="948" y="1160"/>
      <point x="940" y="1150"/>
      <point x="933" y="1135" type="curve" smooth="yes"/>
      <point x="435" y="167" type="line" smooth="yes"/>
      <point x="424" y="145"/>
      <point x="422" y="127"/>
      <point x="430" y="114" type="curve" smooth="yes"/>
      <point x="444" y="89"/>
      <point x="463" y="84"/>
    </contour>
    <contour>
      <point x="387" y="514" type="curve" smooth="yes"/>
      <point x="443" y="514"/>
      <point x="492" y="531"/>
      <point x="534" y="566" type="curve" smooth="yes"/>
      <point x="579" y="603"/>
      <point x="601" y="649"/>
      <point x="601" y="705" type="curve" smooth="yes"/>
      <point x="601" y="780"/>
      <point x="561" y="835"/>
      <point x="482" y="870" type="curve"/>
      <point x="547" y="901"/>
      <point x="579" y="947"/>
      <point x="579" y="1010" type="curve" smooth="yes"/>
      <point x="579" y="1058"/>
      <point x="560" y="1097"/>
      <point x="523" y="1128" type="curve" smooth="yes"/>
      <point x="488" y="1157"/>
      <point x="446" y="1171"/>
      <point x="397" y="1171" type="curve" smooth="yes"/>
      <point x="346" y="1171"/>
      <point x="300" y="1157"/>
      <point x="260" y="1129" type="curve" smooth="yes"/>
      <point x="231" y="1108"/>
      <point x="216" y="1091"/>
      <point x="216" y="1078" type="curve" smooth="yes"/>
      <point x="216" y="1065"/>
      <point x="223" y="1059"/>
      <point x="237" y="1059" type="curve" smooth="yes"/>
      <point x="243" y="1059"/>
      <point x="250" y="1064"/>
      <point x="259" y="1073" type="curve" smooth="yes"/>
      <point x="291" y="1110"/>
      <point x="337" y="1129"/>
      <point x="397" y="1129" type="curve" smooth="yes"/>
      <point x="434" y="1129"/>
      <point x="465" y="1119"/>
      <point x="492" y="1098" type="curve" smooth="yes"/>
      <point x="521" y="1075"/>
      <point x="536" y="1046"/>
      <point x="536" y="1010" type="curve" smooth="yes"/>
      <point x="536" y="976"/>
      <point x="522" y="948"/>
      <point x="495" y="926" type="curve" smooth="yes"/>
      <point x="470" y="906"/>
      <point x="441" y="896"/>
      <point x="406" y="896" type="curve" smooth="yes"/>
      <point x="365" y="896"/>
      <point x="345" y="889"/>
      <point x="345" y="875" type="curve" smooth="yes"/>
      <point x="345" y="861"/>
      <point x="354" y="854"/>
      <point x="373" y="854" type="curve" smooth="yes"/>
      <point x="419" y="854"/>
      <point x="461" y="841"/>
      <point x="498" y="814" type="curve" smooth="yes"/>
      <point x="539" y="785"/>
      <point x="559" y="748"/>
      <point x="559" y="703" type="curve" smooth="yes"/>
      <point x="559" y="660"/>
      <point x="541" y="625"/>
      <point x="504" y="596" type="curve" smooth="yes"/>
      <point x="470" y="569"/>
      <point x="431" y="556"/>
      <point x="388" y="556" type="curve" smooth="yes"/>
      <point x="349" y="556"/>
      <point x="311" y="566"/>
      <point x="273" y="586" type="curve" smooth="yes"/>
      <point x="235" y="606"/>
      <point x="218" y="616"/>
      <point x="221" y="616" type="curve" smooth="yes"/>
      <point x="208" y="616"/>
      <point x="201" y="609"/>
      <point x="201" y="596" type="curve" smooth="yes"/>
      <point x="201" y="576"/>
      <point x="226" y="556"/>
      <point x="275" y="537" type="curve" smooth="yes"/>
      <point x="314" y="522"/>
      <point x="351" y="514"/>
    </contour>
    <contour>
      <point x="989" y="0" type="curve" smooth="yes"/>
      <point x="1102" y="0" type="line" smooth="yes"/>
      <point x="1121" y="0"/>
      <point x="1130" y="7"/>
      <point x="1130" y="21" type="curve" smooth="yes"/>
      <point x="1130" y="36"/>
      <point x="1121" y="43"/>
      <point x="1102" y="43" type="curve" smooth="yes"/>
      <point x="1067" y="43" type="line"/>
      <point x="1067" y="176" type="line"/>
      <point x="1109" y="176"/>
      <point x="1130" y="183"/>
      <point x="1130" y="197" type="curve" smooth="yes"/>
      <point x="1130" y="211"/>
      <point x="1109" y="218"/>
      <point x="1067" y="218" type="curve"/>
      <point x="1067" y="628" type="line"/>
      <point x="979" y="628" type="line"/>
      <point x="746" y="225" type="line"/>
      <point x="746" y="176" type="line"/>
      <point x="1024" y="176" type="line"/>
      <point x="1025" y="43" type="line"/>
      <point x="989" y="43" type="line" smooth="yes"/>
      <point x="970" y="43"/>
      <point x="961" y="36"/>
      <point x="961" y="21" type="curve" smooth="yes"/>
      <point x="961" y="7"/>
      <point x="970" y="0"/>
    </contour>
    <contour>
      <point x="790" y="218" type="line"/>
      <point x="1002" y="586" type="line"/>
      <point x="1024" y="586" type="line"/>
      <point x="1024" y="218" type="line"/>
    </contour>
  </outline>
</glyph>
<glyph name="Igrave" format="2">
  <advance width="638"/>
  <unicode hex="00CC"/>
  <note>
Igrave
</note>
  <outline>
    <contour>
      <point x="206" y="-1" type="curve" smooth="yes"/>
      <point x="432" y="-1" type="line" smooth="yes"/>
      <point x="469" y="-1"/>
      <point x="488" y="13"/>
      <point x="488" y="41" type="curve" smooth="yes"/>
      <point x="488" y="70"/>
      <point x="469" y="84"/>
      <point x="432" y="84" type="curve" smooth="yes"/>
      <point x="361" y="84" type="line"/>
      <point x="361" y="1086" type="line"/>
      <point x="432" y="1086" type="line" smooth="yes"/>
      <point x="469" y="1086"/>
      <point x="488" y="1100"/>
      <point x="488" y="1129" type="curve" smooth="yes"/>
      <point x="488" y="1157"/>
      <point x="469" y="1171"/>
      <point x="432" y="1171" type="curve" smooth="yes"/>
      <point x="206" y="1171" type="line" smooth="yes"/>
      <point x="169" y="1171"/>
      <point x="150" y="1157"/>
      <point x="150" y="1129" type="curve" smooth="yes"/>
      <point x="150" y="1100"/>
      <point x="169" y="1086"/>
      <point x="206" y="1086" type="curve" smooth="yes"/>
      <point x="277" y="1086" type="line"/>
      <point x="277" y="84" type="line"/>
      <point x="206" y="84" type="line" smooth="yes"/>
      <point x="169" y="84"/>
      <point x="150" y="70"/>
      <point x="150" y="41" type="curve" smooth="yes"/>
      <point x="150" y="13"/>
      <point x="169" y="-1"/>
    </contour>
    <contour>
      <point x="428" y="1222" type="curve" smooth="yes"/>
      <point x="457" y="1222"/>
      <point x="471" y="1236"/>
      <point x="471" y="1265" type="curve" smooth="yes"/>
      <point x="471" y="1270"/>
      <point x="470" y="1275"/>
      <point x="468" y="1281" type="curve"/>
      <point x="460" y="1294"/>
      <point x="414" y="1337"/>
      <point x="331" y="1410" type="curve" smooth="yes"/>
      <point x="242" y="1490"/>
      <point x="189" y="1530"/>
      <point x="172" y="1530" type="curve" smooth="yes"/>
      <point x="143" y="1530"/>
      <point x="129" y="1516"/>
      <point x="129" y="1487" type="curve" smooth="yes"/>
      <point x="129" y="1474"/>
      <point x="137" y="1461"/>
      <point x="154" y="1446" type="curve" smooth="yes"/>
      <point x="390" y="1242" type="line" smooth="yes"/>
      <point x="405" y="1229"/>
      <point x="418" y="1222"/>
    </contour>
  </outline>
</glyph>
<glyph name="Idieresis" format="2">
  <advance width="638"/>
  <unicode hex="00CF"/>
  <note>
Idieresis
</note>
  <outline>
    <contour>
      <point x="206" y="-1" type="curve" smooth="yes"/>
      <point x="432" y="-1" type="line" smooth="yes"/>
      <point x="469" y="-1"/>
      <point x="488" y="13"/>
      <point x="488" y="41" type="curve" smooth="yes"/>
      <point x="488" y="70"/>
      <point x="469" y="84"/>
      <point x="432" y="84" type="curve" smooth="yes"/>
      <point x="361" y="84" type="line"/>
      <point x="361" y="1086" type="line"/>
      <point x="432" y="1086" type="line" smooth="yes"/>
      <point x="469" y="1086"/>
      <point x="488" y="1100"/>
      <point x="488" y="1129" type="curve" smooth="yes"/>
      <point x="488" y="1157"/>
      <point x="469" y="1171"/>
      <point x="432" y="1171" type="curve" smooth="yes"/>
      <point x="206" y="1171" type="line" smooth="yes"/>
      <point x="169" y="1171"/>
      <point x="150" y="1157"/>
      <point x="150" y="1129" type="curve" smooth="yes"/>
      <point x="150" y="1100"/>
      <point x="169" y="1086"/>
      <point x="206" y="1086" type="curve" smooth="yes"/>
      <point x="277" y="1086" type="line"/>
      <point x="277" y="84" type="line"/>
      <point x="206" y="84" type="line" smooth="yes"/>
      <point x="169" y="84"/>
      <point x="150" y="70"/>
      <point x="150" y="41" type="curve" smooth="yes"/>
      <point x="150" y="13"/>
      <point x="169" y="-1"/>
    </contour>
    <contour>
      <point x="175" y="1220" type="curve" smooth="yes"/>
      <point x="218" y="1220"/>
      <point x="252" y="1254"/>
      <point x="252" y="1297" type="curve" smooth="yes"/>
      <point x="252" y="1338"/>
      <point x="218" y="1374"/>
      <point x="175" y="1374" type="curve" smooth="yes"/>
      <point x="132" y="1374"/>
      <point x="98" y="1340"/>
      <point x="98" y="1297" type="curve" smooth="yes"/>
      <point x="98" y="1254"/>
      <point x="132" y="1220"/>
    </contour>
    <contour>
      <point x="475" y="1220" type="curve" smooth="yes"/>
      <point x="518" y="1220"/>
      <point x="552" y="1254"/>
      <point x="552" y="1297" type="curve" smooth="yes"/>
      <point x="552" y="1338"/>
      <point x="518" y="1374"/>
      <point x="475" y="1374" type="curve" smooth="yes"/>
      <point x="432" y="1374"/>
      <point x="398" y="1340"/>
      <point x="398" y="1297" type="curve" smooth="yes"/>
      <point x="398" y="1254"/>
      <point x="432" y="1220"/>
    </contour>
  </outline>
</glyph>
<glyph name="Uacute" format="2">
  <advance width="1360"/>
  <unicode hex="00DA"/>
  <note>
Uacute
</note>
  <outline>
    <contour>
      <point x="685" y="-32" type="curve" smooth="yes"/>
      <point x="800" y="-32"/>
      <point x="896" y="9"/>
      <point x="974" y="91" type="curve" smooth="yes"/>
      <point x="1050" y="171"/>
      <point x="1088" y="269"/>
      <point x="1088" y="385" type="curve" smooth="yes"/>
      <point x="1088" y="1087" type="line"/>
      <point x="1159" y="1087" type="line" smooth="yes"/>
      <point x="1196" y="1087"/>
      <point x="1215" y="1101"/>
      <point x="1215" y="1130" type="curve" smooth="yes"/>
      <point x="1215" y="1158"/>
      <point x="1196" y="1172"/>
      <point x="1159" y="1172" type="curve" smooth="yes"/>
      <point x="933" y="1172" type="line" smooth="yes"/>
      <point x="896" y="1172"/>
      <point x="877" y="1158"/>
      <point x="877" y="1130" type="curve" smooth="yes"/>
      <point x="877" y="1101"/>
      <point x="896" y="1087"/>
      <point x="933" y="1087" type="curve" smooth="yes"/>
      <point x="1004" y="1087" type="line"/>
      <point x="1004" y="385" type="line" smooth="yes"/>
      <point x="1004" y="205"/>
      <point x="861" y="52"/>
      <point x="681" y="52" type="curve" smooth="yes"/>
      <point x="591" y="52"/>
      <point x="515" y="85"/>
      <point x="453" y="152" type="curve" smooth="yes"/>
      <point x="392" y="217"/>
      <point x="361" y="294"/>
      <point x="361" y="385" type="curve" smooth="yes"/>
      <point x="361" y="1087" type="line"/>
      <point x="432" y="1087" type="line" smooth="yes"/>
      <point x="469" y="1087"/>
      <point x="488" y="1101"/>
      <point x="488" y="1130" type="curve" smooth="yes"/>
      <point x="488" y="1158"/>
      <point x="469" y="1172"/>
      <point x="432" y="1172" type="curve" smooth="yes"/>
      <point x="206" y="1172" type="line" smooth="yes"/>
      <point x="169" y="1172"/>
      <point x="150" y="1158"/>
      <point x="150" y="1130" type="curve" smooth="yes"/>
      <point x="150" y="1101"/>
      <point x="169" y="1087"/>
      <point x="206" y="1087" type="curve" smooth="yes"/>
      <point x="277" y="1087" type="line"/>
      <point x="277" y="385" type="line" smooth="yes"/>
      <point x="277" y="153"/>
      <point x="454" y="-32"/>
    </contour>
    <contour>
      <point x="662" y="1252" type="curve" smooth="yes"/>
      <point x="672" y="1252"/>
      <point x="685" y="1259"/>
      <point x="700" y="1272" type="curve" smooth="yes"/>
      <point x="936" y="1476" type="line" smooth="yes"/>
      <point x="953" y="1491"/>
      <point x="961" y="1504"/>
      <point x="961" y="1517" type="curve" smooth="yes"/>
      <point x="961" y="1546"/>
      <point x="947" y="1560"/>
      <point x="918" y="1560" type="curve" smooth="yes"/>
      <point x="901" y="1560"/>
      <point x="848" y="1520"/>
      <point x="759" y="1440" type="curve" smooth="yes"/>
      <point x="676" y="1367"/>
      <point x="630" y="1324"/>
      <point x="622" y="1311" type="curve"/>
      <point x="620" y="1305"/>
      <point x="619" y="1300"/>
      <point x="619" y="1295" type="curve" smooth="yes"/>
      <point x="619" y="1266"/>
      <point x="633" y="1252"/>
    </contour>
  </outline>
</glyph>
<glyph name="aring" format="2">
  <advance width="1146"/>
  <unicode hex="00E5"/>
  <note>
aring
</note>
  <outline>
    <contour>
      <point x="441" y="-30" type="curve" smooth="yes"/>
      <point x="566" y="-30"/>
      <point x="684" y="16"/>
      <point x="794" y="109" type="curve"/>
      <point x="794" y="0" type="line"/>
      <point x="941" y="0" type="line" smooth="yes"/>
      <point x="978" y="0"/>
      <point x="997" y="14"/>
      <point x="997" y="42" type="curve" smooth="yes"/>
      <point x="997" y="71"/>
      <point x="978" y="85"/>
      <point x="941" y="85" type="curve" smooth="yes"/>
      <point x="870" y="85" type="line"/>
      <point x="871" y="578" type="line" smooth="yes"/>
      <point x="871" y="652"/>
      <point x="837" y="710"/>
      <point x="770" y="753" type="curve" smooth="yes"/>
      <point x="712" y="790"/>
      <point x="644" y="809"/>
      <point x="567" y="809" type="curve" smooth="yes"/>
      <point x="536" y="809"/>
      <point x="480" y="800"/>
      <point x="399" y="782" type="curve" smooth="yes"/>
      <point x="312" y="763"/>
      <point x="263" y="747"/>
      <point x="252" y="734" type="curve" smooth="yes"/>
      <point x="246" y="727"/>
      <point x="243" y="718"/>
      <point x="243" y="709" type="curve" smooth="yes"/>
      <point x="243" y="684"/>
      <point x="255" y="671"/>
      <point x="278" y="671" type="curve" smooth="yes"/>
      <point x="288" y="671"/>
      <point x="329" y="681"/>
      <point x="400" y="702" type="curve" smooth="yes"/>
      <point x="471" y="722"/>
      <point x="525" y="732"/>
      <point x="563" y="732" type="curve" smooth="yes"/>
      <point x="622" y="732"/>
      <point x="673" y="721"/>
      <point x="714" y="700" type="curve" smooth="yes"/>
      <point x="767" y="673"/>
      <point x="794" y="632"/>
      <point x="794" y="578" type="curve" smooth="yes"/>
      <point x="794" y="455" type="line"/>
      <point x="702" y="474"/>
      <point x="620" y="483"/>
      <point x="548" y="483" type="curve" smooth="yes"/>
      <point x="447" y="483"/>
      <point x="360" y="463"/>
      <point x="287" y="423" type="curve" smooth="yes"/>
      <point x="196" y="374"/>
      <point x="151" y="302"/>
      <point x="151" y="208" type="curve" smooth="yes"/>
      <point x="151" y="131"/>
      <point x="181" y="71"/>
      <point x="242" y="28" type="curve" smooth="yes"/>
      <point x="295" y="-11"/>
      <point x="362" y="-30"/>
    </contour>
    <contour>
      <point x="438" y="46" type="curve" smooth="yes"/>
      <point x="380" y="46"/>
      <point x="332" y="58"/>
      <point x="294" y="83" type="curve" smooth="yes"/>
      <point x="249" y="112"/>
      <point x="227" y="153"/>
      <point x="227" y="208" type="curve" smooth="yes"/>
      <point x="227" y="277"/>
      <point x="267" y="329"/>
      <point x="347" y="365" type="curve" smooth="yes"/>
      <point x="408" y="393"/>
      <point x="478" y="407"/>
      <point x="556" y="407" type="curve" smooth="yes"/>
      <point x="646" y="407"/>
      <point x="725" y="397"/>
      <point x="794" y="377" type="curve"/>
      <point x="794" y="210" type="line"/>
      <point x="680" y="101"/>
      <point x="561" y="46"/>
    </contour>
    <contour>
      <point x="567" y="1009" type="curve" smooth="yes"/>
      <point x="640" y="1009"/>
      <point x="702" y="1067"/>
      <point x="702" y="1142" type="curve" smooth="yes"/>
      <point x="702" y="1217"/>
      <point x="640" y="1276"/>
      <point x="567" y="1276" type="curve" smooth="yes"/>
      <point x="492" y="1276"/>
      <point x="431" y="1217"/>
      <point x="431" y="1142" type="curve" smooth="yes"/>
      <point x="431" y="1067"/>
      <point x="492" y="1009"/>
    </contour>
    <contour>
      <point x="567" y="1054" type="curve" smooth="yes"/>
      <point x="518" y="1054"/>
      <point x="476" y="1093"/>
      <point x="476" y="1142" type="curve" smooth="yes"/>
      <point x="476" y="1191"/>
      <point x="516" y="1231"/>
      <point x="567" y="1231" type="curve" smooth="yes"/>
      <point x="616" y="1231"/>
      <point x="657" y="1191"/>
      <point x="657" y="1142" type="curve" smooth="yes"/>
      <point x="657" y="1093"/>
      <point x="616" y="1054"/>
    </contour>
  </outline>
</glyph>
<glyph name="egrave" format="2">
  <advance width="1150"/>
  <unicode hex="00E8"/>
  <note>
egrave
</note>
  <outline>
    <contour>
      <point x="606" y="-29" type="curve" smooth="yes"/>
      <point x="683" y="-29"/>
      <point x="759" y="-16"/>
      <point x="833" y="10" type="curve" smooth="yes"/>
      <point x="945" y="50"/>
      <point x="1001" y="88"/>
      <point x="1001" y="125" type="curve" smooth="yes"/>
      <point x="1001" y="150"/>
      <point x="989" y="163"/>
      <point x="965" y="163" type="curve" smooth="yes"/>
      <point x="958" y="163"/>
      <point x="948" y="158"/>
      <point x="935" y="149" type="curve" smooth="yes"/>
      <point x="840" y="81"/>
      <point x="731" y="47"/>
      <point x="606" y="47" type="curve" smooth="yes"/>
      <point x="403" y="47"/>
      <point x="254" y="174"/>
      <point x="227" y="374" type="curve"/>
      <point x="999" y="374" type="line"/>
      <point x="1002" y="627"/>
      <point x="828" y="810"/>
      <point x="575" y="810" type="curve" smooth="yes"/>
      <point x="459" y="810"/>
      <point x="360" y="772"/>
      <point x="277" y="697" type="curve" smooth="yes"/>
      <point x="192" y="620"/>
      <point x="150" y="523"/>
      <point x="150" y="408" type="curve" smooth="yes"/>
      <point x="150" y="156"/>
      <point x="353" y="-29"/>
    </contour>
    <contour>
      <point x="228" y="450" type="line"/>
      <point x="259" y="622"/>
      <point x="399" y="733"/>
      <point x="575" y="733" type="curve" smooth="yes"/>
      <point x="750" y="733"/>
      <point x="892" y="621"/>
      <point x="923" y="450" type="curve"/>
    </contour>
    <contour>
      <point x="575" y="1010" type="curve" smooth="yes"/>
      <point x="604" y="1010"/>
      <point x="618" y="1024"/>
      <point x="618" y="1053" type="curve" smooth="yes"/>
      <point x="618" y="1058"/>
      <point x="617" y="1063"/>
      <point x="615" y="1069" type="curve"/>
      <point x="607" y="1081"/>
      <point x="561" y="1124"/>
      <point x="478" y="1198" type="curve" smooth="yes"/>
      <point x="389" y="1278"/>
      <point x="336" y="1318"/>
      <point x="319" y="1318" type="curve" smooth="yes"/>
      <point x="290" y="1318"/>
      <point x="276" y="1304"/>
      <point x="276" y="1275" type="curve" smooth="yes"/>
      <point x="276" y="1262"/>
      <point x="284" y="1248"/>
      <point x="301" y="1234" type="curve" smooth="yes"/>
      <point x="537" y="1030" type="line" smooth="yes"/>
      <point x="552" y="1017"/>
      <point x="565" y="1010"/>
    </contour>
  </outline>
</glyph>
<glyph name="eth" format="2">
  <advance width="1148"/>
  <unicode hex="00F0"/>
  <note>
eth
</note>
  <outline>
    <contour>
      <point x="571" y="-26" type="curve" smooth="yes"/>
      <point x="710" y="-26"/>
      <point x="818" y="19"/>
      <point x="894" y="110" type="curve" smooth="yes"/>
      <point x="964" y="194"/>
      <point x="999" y="307"/>
      <point x="999" y="450" type="curve" smooth="yes"/>
      <point x="999" y="676"/>
      <point x="917" y="864"/>
      <point x="753" y="1015" type="curve"/>
      <point x="778" y="1020" type="line" smooth="yes"/>
      <point x="864" y="1037"/>
      <point x="907" y="1059"/>
      <point x="907" y="1085" type="curve" smooth="yes"/>
      <point x="907" y="1109"/>
      <point x="896" y="1121"/>
      <point x="874" y="1121" type="curve" smooth="yes"/>
      <point x="852" y="1121"/>
      <point x="821" y="1113"/>
      <point x="780" y="1098" type="curve" smooth="yes"/>
      <point x="688" y="1061" type="line"/>
      <point x="613" y="1107"/>
      <point x="537" y="1130"/>
      <point x="459" y="1130" type="curve" smooth="yes"/>
      <point x="426" y="1130"/>
      <point x="409" y="1118"/>
      <point x="409" y="1094" type="curve" smooth="yes"/>
      <point x="409" y="1084"/>
      <point x="413" y="1075"/>
      <point x="422" y="1068" type="curve"/>
      <point x="484" y="1050"/>
      <point x="541" y="1036"/>
      <point x="594" y="1026" type="curve"/>
      <point x="445" y="993"/>
      <point x="359" y="965"/>
      <point x="338" y="944" type="curve" smooth="yes"/>
      <point x="329" y="935"/>
      <point x="324" y="926"/>
      <point x="324" y="918" type="curve" smooth="yes"/>
      <point x="324" y="895"/>
      <point x="337" y="884"/>
      <point x="363" y="884" type="curve" smooth="yes"/>
      <point x="375" y="884"/>
      <point x="478" y="918"/>
      <point x="671" y="985" type="curve"/>
      <point x="746" y="918"/>
      <point x="799" y="861"/>
      <point x="829" y="816" type="curve" smooth="yes"/>
      <point x="862" y="765"/>
      <point x="891" y="693"/>
      <point x="914" y="601" type="curve"/>
      <point x="835" y="727"/>
      <point x="718" y="790"/>
      <point x="564" y="790" type="curve" smooth="yes"/>
      <point x="335" y="790"/>
      <point x="150" y="618"/>
      <point x="150" y="390" type="curve" smooth="yes"/>
      <point x="150" y="154"/>
      <point x="335" y="-26"/>
    </contour>
    <contour>
      <point x="575" y="45" type="curve" smooth="yes"/>
      <point x="388" y="45"/>
      <point x="224" y="198"/>
      <point x="224" y="385" type="curve" smooth="yes"/>
      <point x="224" y="480"/>
      <point x="259" y="559"/>
      <point x="328" y="622" type="curve" smooth="yes"/>
      <point x="395" y="683"/>
      <point x="476" y="713"/>
      <point x="572" y="713" type="curve" smooth="yes"/>
      <point x="669" y="713"/>
      <point x="751" y="682"/>
      <point x="816" y="620" type="curve" smooth="yes"/>
      <point x="883" y="556"/>
      <point x="916" y="476"/>
      <point x="916" y="379" type="curve" smooth="yes"/>
      <point x="916" y="187"/>
      <point x="768" y="45"/>
    </contour>
  </outline>
</glyph>
<glyph name="divide" format="2">
  <advance width="1239"/>
  <unicode hex="00F7"/>
  <note>
divide
</note>
  <outline>
    <contour>
      <point x="228" y="541" type="curve" smooth="yes"/>
      <point x="1013" y="541" type="line" smooth="yes"/>
      <point x="1065" y="541"/>
      <point x="1091" y="555"/>
      <point x="1091" y="583" type="curve" smooth="yes"/>
      <point x="1091" y="611"/>
      <point x="1065" y="625"/>
      <point x="1013" y="625" type="curve" smooth="yes"/>
      <point x="228" y="625" type="line" smooth="yes"/>
      <point x="176" y="625"/>
      <point x="150" y="611"/>
      <point x="150" y="583" type="curve" smooth="yes"/>
      <point x="150" y="555"/>
      <point x="176" y="541"/>
    </contour>
    <contour>
      <point x="620" y="109" type="curve" smooth="yes"/>
      <point x="665" y="109"/>
      <point x="702" y="145"/>
      <point x="702" y="190" type="curve" smooth="yes"/>
      <point x="702" y="235"/>
      <point x="665" y="271"/>
      <point x="620" y="271" type="curve" smooth="yes"/>
      <point x="575" y="271"/>
      <point x="539" y="235"/>
      <point x="539" y="190" type="curve" smooth="yes"/>
      <point x="539" y="145"/>
      <point x="575" y="109"/>
    </contour>
    <contour>
      <point x="621" y="894" type="curve" smooth="yes"/>
      <point x="666" y="894"/>
      <point x="702" y="931"/>
      <point x="702" y="976" type="curve" smooth="yes"/>
      <point x="702" y="1021"/>
      <point x="666" y="1057"/>
      <point x="621" y="1057" type="curve" smooth="yes"/>
      <point x="576" y="1057"/>
      <point x="539" y="1021"/>
      <point x="539" y="976" type="curve" smooth="yes"/>
      <point x="539" y="931"/>
      <point x="576" y="894"/>
    </contour>
  </outline>
</glyph>
<glyph name="udieresis" format="2">
  <advance width="1273"/>
  <unicode hex="00FC"/>
  <note>
udieresis
</note>
  <outline>
    <contour>
      <point x="543" y="-33" type="curve" smooth="yes"/>
      <point x="676" y="-33"/>
      <point x="800" y="19"/>
      <point x="915" y="123" type="curve"/>
      <point x="915" y="0" type="line"/>
      <point x="1070" y="0" type="line" smooth="yes"/>
      <point x="1107" y="0"/>
      <point x="1126" y="14"/>
      <point x="1126" y="42" type="curve" smooth="yes"/>
      <point x="1126" y="67"/>
      <point x="1109" y="81"/>
      <point x="1075" y="85" type="curve"/>
      <point x="999" y="84" type="line"/>
      <point x="999" y="762" type="line"/>
      <point x="844" y="762" type="line" smooth="yes"/>
      <point x="807" y="762"/>
      <point x="788" y="748"/>
      <point x="788" y="720" type="curve" smooth="yes"/>
      <point x="788" y="695"/>
      <point x="805" y="680"/>
      <point x="838" y="676" type="curve"/>
      <point x="915" y="677" type="line"/>
      <point x="915" y="239" type="line"/>
      <point x="801" y="114"/>
      <point x="676" y="51"/>
      <point x="539" y="51" type="curve" smooth="yes"/>
      <point x="432" y="51"/>
      <point x="357" y="131"/>
      <point x="357" y="239" type="curve" smooth="yes"/>
      <point x="357" y="762" type="line"/>
      <point x="202" y="762" type="line" smooth="yes"/>
      <point x="165" y="762"/>
      <point x="146" y="748"/>
      <point x="146" y="720" type="curve" smooth="yes"/>
      <point x="146" y="695"/>
      <point x="163" y="680"/>
      <point x="196" y="676" type="curve"/>
      <point x="273" y="677" type="line"/>
      <point x="273" y="239" type="line" smooth="yes"/>
      <point x="273" y="78"/>
      <point x="382" y="-33"/>
    </contour>
    <contour>
      <point x="457" y="962" type="curve" smooth="yes"/>
      <point x="500" y="962"/>
      <point x="534" y="996"/>
      <point x="534" y="1039" type="curve" smooth="yes"/>
      <point x="534" y="1080"/>
      <point x="500" y="1116"/>
      <point x="457" y="1116" type="curve" smooth="yes"/>
      <point x="414" y="1116"/>
      <point x="380" y="1082"/>
      <point x="380" y="1039" type="curve" smooth="yes"/>
      <point x="380" y="996"/>
      <point x="414" y="962"/>
    </contour>
    <contour>
      <point x="757" y="962" type="curve" smooth="yes"/>
      <point x="800" y="962"/>
      <point x="834" y="996"/>
      <point x="834" y="1039" type="curve" smooth="yes"/>
      <point x="834" y="1080"/>
      <point x="800" y="1116"/>
      <point x="757" y="1116" type="curve" smooth="yes"/>
      <point x="714" y="1116"/>
      <point x="680" y="1082"/>
      <point x="680" y="1039" type="curve" smooth="yes"/>
      <point x="680" y="996"/>
      <point x="714" y="962"/>
    </contour>
  </outline>
</glyph>
<glyph name="middot" format="2">
  <advance width="903"/>
  <unicode hex="0108"/>
  <note>
middot
</note>
  <outline>
    <contour>
      <point x="453" y="576" type="curve" smooth="yes"/>
      <point x="509" y="576"/>
      <point x="555" y="622"/>
      <point x="555" y="678" type="curve" smooth="yes"/>
      <point x="555" y="735"/>
      <point x="510" y="781"/>
      <point x="453" y="781" type="curve" smooth="yes"/>
      <point x="396" y="781"/>
      <point x="350" y="735"/>
      <point x="350" y="678" type="curve" smooth="yes"/>
      <point x="350" y="621"/>
      <point x="396" y="576"/>
    </contour>
  </outline>
</glyph>
<glyph name="noName00437" format="2">
  <advance width="631"/>
  <unicode hex="0237"/>
  <note>
noName00437
</note>
  <outline>
    <contour>
      <point x="20" y="-162" type="curve" smooth="yes"/>
      <point x="29" y="-162"/>
      <point x="55" y="-137"/>
      <point x="98" y="-87" type="curve" smooth="yes"/>
      <point x="171" y="0" type="line"/>
      <point x="631" y="0" type="line"/>
      <point x="631" y="158" type="line"/>
      <point x="302" y="158" type="line"/>
      <point x="436" y="333"/>
      <point x="503" y="514"/>
      <point x="503" y="701" type="curve" smooth="yes"/>
      <point x="503" y="744"/>
      <point x="493" y="786"/>
      <point x="474" y="826" type="curve" smooth="yes"/>
      <point x="450" y="875"/>
      <point x="419" y="900"/>
      <point x="380" y="900" type="curve" smooth="yes"/>
      <point x="308" y="900"/>
      <point x="226" y="816"/>
      <point x="226" y="744" type="curve" smooth="yes"/>
      <point x="226" y="712"/>
      <point x="235" y="685"/>
      <point x="254" y="664" type="curve" smooth="yes"/>
      <point x="273" y="641"/>
      <point x="299" y="629"/>
      <point x="330" y="629" type="curve" smooth="yes"/>
      <point x="361" y="629"/>
      <point x="399" y="635"/>
      <point x="444" y="647" type="curve"/>
      <point x="447" y="632"/>
      <point x="448" y="619"/>
      <point x="448" y="610" type="curve" smooth="yes"/>
      <point x="448" y="439"/>
      <point x="314" y="203"/>
      <point x="45" y="-96" type="curve" smooth="yes"/>
      <point x="18" y="-127"/>
      <point x="4" y="-144"/>
      <point x="4" y="-145" type="curve" smooth="yes"/>
      <point x="4" y="-156"/>
      <point x="9" y="-162"/>
    </contour>
  </outline>
</glyph>
<glyph name="noName00549" format="2">
  <advance width="0"/>
  <unicode hex="02A7"/>
  <note>
noName00549
</note>
  <anchor x="90" y="-30" name="_class2"/>
  <outline>
    <contour>
      <point x="19" y="-152" type="line"/>
      <point x="147" y="-152" type="line"/>
      <point x="147" y="-24" type="line"/>
      <point x="19" y="-24" type="line"/>
    </contour>
  </outline>
</glyph>
<glyph name="U064f" format="2">
  <advance width="0"/>
  <unicode hex="064F"/>
  <note>
U064f
</note>
  <anchor x="165" y="0" name="_class0"/>
  <outline>
    <contour>
      <point x="60" y="0" type="curve" smooth="yes"/>
      <point x="101" y="0"/>
      <point x="153" y="38"/>
      <point x="216" y="114" type="curve"/>
      <point x="280" y="73" type="line"/>
      <point x="286" y="152" type="line"/>
      <point x="255" y="176" type="line"/>
      <point x="272" y="212"/>
      <point x="280" y="243"/>
      <point x="280" y="268" type="curve" smooth="yes"/>
      <point x="280" y="315"/>
      <point x="262" y="338"/>
      <point x="226" y="338" type="curve" smooth="yes"/>
      <point x="201" y="338"/>
      <point x="178" y="322"/>
      <point x="159" y="289" type="curve" smooth="yes"/>
      <point x="142" y="260"/>
      <point x="133" y="232"/>
      <point x="133" y="205" type="curve" smooth="yes"/>
      <point x="133" y="181"/>
      <point x="149" y="157"/>
      <point x="182" y="133" type="curve"/>
      <point x="123" y="81"/>
      <point x="67" y="40"/>
      <point x="13" y="10" type="curve"/>
      <point x="34" y="3"/>
      <point x="49" y="0"/>
    </contour>
    <contour>
      <point x="226" y="195" type="curve"/>
      <point x="191" y="218"/>
      <point x="174" y="237"/>
      <point x="174" y="254" type="curve" smooth="yes"/>
      <point x="174" y="265"/>
      <point x="179" y="270"/>
      <point x="188" y="270" type="curve" smooth="yes"/>
      <point x="216" y="270"/>
      <point x="230" y="254"/>
      <point x="230" y="222" type="curve" smooth="yes"/>
      <point x="230" y="214"/>
      <point x="229" y="205"/>
    </contour>
  </outline>
</glyph>
<glyph name="U0656" format="2">
  <advance width="0"/>
  <unicode hex="0656"/>
  <note>
U0656
</note>
  <anchor x="210" y="30" name="_class0"/>
  <outline>
    <contour>
      <point x="0" y="0" type="curve"/>
      <point x="17" y="28"/>
      <point x="61" y="43"/>
      <point x="131" y="46" type="curve" smooth="yes"/>
      <point x="235" y="50"/>
      <point x="293" y="53"/>
      <point x="304" y="56" type="curve" smooth="yes"/>
      <point x="362" y="69"/>
      <point x="391" y="103"/>
      <point x="391" y="157" type="curve" smooth="yes"/>
      <point x="391" y="214"/>
      <point x="367" y="243"/>
      <point x="318" y="243" type="curve" smooth="yes"/>
      <point x="238" y="243"/>
      <point x="175" y="197"/>
      <point x="128" y="105" type="curve"/>
      <point x="88" y="105"/>
      <point x="22" y="72"/>
      <point x="-1" y="39" type="curve"/>
      <point x="-3" y="26" type="line"/>
      <point x="-3" y="17"/>
      <point x="-2" y="9"/>
    </contour>
    <contour>
      <point x="165" y="105" type="line"/>
      <point x="198" y="162"/>
      <point x="242" y="190"/>
      <point x="298" y="190" type="curve" smooth="yes"/>
      <point x="324" y="190"/>
      <point x="337" y="176"/>
      <point x="337" y="149" type="curve" smooth="yes"/>
      <point x="337" y="120"/>
      <point x="292" y="105"/>
      <point x="202" y="105" type="curve" smooth="yes"/>
    </contour>
  </outline>
</glyph>
<glyph name="U0660" format="2">
  <advance width="751"/>
  <unicode hex="0660"/>
  <note>
U0660
</note>
  <outline>
    <contour>
      <point x="433" y="275" type="curve"/>
      <point x="448" y="353"/>
      <point x="460" y="409"/>
      <point x="469" y="442" type="curve"/>
      <point x="419" y="478"/>
      <point x="374" y="514"/>
      <point x="335" y="550" type="curve"/>
      <point x="316" y="494"/>
      <point x="299" y="435"/>
      <point x="286" y="372" type="curve"/>
      <point x="329" y="339"/>
      <point x="378" y="306"/>
    </contour>
  </outline>
</glyph>
<glyph name="U0664" format="2">
  <advance width="826"/>
  <unicode hex="0664"/>
  <note>
U0664
</note>
  <outline>
    <contour>
      <point x="596" y="-5" type="curve"/>
      <point x="637" y="128" type="line"/>
      <point x="445" y="174"/>
      <point x="349" y="211"/>
      <point x="349" y="239" type="curve" smooth="yes"/>
      <point x="349" y="254"/>
      <point x="384" y="300"/>
      <point x="453" y="377" type="curve" smooth="yes"/>
      <point x="522" y="454"/>
      <point x="556" y="498"/>
      <point x="556" y="510" type="curve" smooth="yes"/>
      <point x="556" y="524"/>
      <point x="522" y="549"/>
      <point x="453" y="584" type="curve" smooth="yes"/>
      <point x="384" y="619"/>
      <point x="349" y="642"/>
      <point x="349" y="655" type="curve" smooth="yes"/>
      <point x="349" y="680"/>
      <point x="392" y="711"/>
      <point x="478" y="746" type="curve"/>
      <point x="514" y="881" type="line"/>
      <point x="453" y="843"/>
      <point x="395" y="797"/>
      <point x="342" y="742" type="curve" smooth="yes"/>
      <point x="273" y="671"/>
      <point x="239" y="610"/>
      <point x="239" y="559" type="curve" smooth="yes"/>
      <point x="239" y="532"/>
      <point x="266" y="504"/>
      <point x="320" y="475" type="curve"/>
      <point x="439" y="424" type="line"/>
      <point x="373" y="351"/>
      <point x="334" y="306"/>
      <point x="322" y="290" type="curve" smooth="yes"/>
      <point x="283" y="235"/>
      <point x="263" y="181"/>
      <point x="263" y="128" type="curve" smooth="yes"/>
      <point x="263" y="79"/>
      <point x="374" y="34"/>
    </contour>
  </outline>
</glyph>
<glyph name="U0666" format="2">
  <advance width="826"/>
  <unicode hex="0666"/>
  <note>
U0666
</note>
  <outline>
    <contour>
      <point x="649" y="16" type="curve"/>
      <point x="664" y="186" type="line"/>
      <point x="578" y="247"/>
      <point x="535" y="383"/>
      <point x="535" y="594" type="curve" smooth="yes"/>
      <point x="535" y="652"/>
      <point x="544" y="720"/>
      <point x="562" y="799" type="curve"/>
      <point x="487" y="777"/>
      <point x="426" y="766"/>
      <point x="379" y="766" type="curve" smooth="yes"/>
      <point x="282" y="766"/>
      <point x="219" y="795"/>
      <point x="188" y="852" type="curve"/>
      <point x="170" y="852" type="line"/>
      <point x="167" y="823"/>
      <point x="166" y="795"/>
      <point x="166" y="768" type="curve" smooth="yes"/>
      <point x="166" y="705"/>
      <point x="177" y="663"/>
      <point x="200" y="643" type="curve" smooth="yes"/>
      <point x="221" y="625"/>
      <point x="263" y="616"/>
      <point x="328" y="616" type="curve" smooth="yes"/>
      <point x="375" y="616"/>
      <point x="432" y="625"/>
      <point x="499" y="642" type="curve"/>
      <point x="507" y="401"/>
      <point x="512" y="261"/>
      <point x="515" y="220" type="curve" smooth="yes"/>
      <point x="524" y="103"/>
      <point x="569" y="35"/>
    </contour>
  </outline>
</glyph>
<glyph name="U0667" format="2">
  <advance width="826"/>
  <unicode hex="0667"/>
  <note>
U0667
</note>
  <outline>
    <contour>
      <point x="422" y="10" type="curve"/>
      <point x="451" y="10" type="line"/>
      <point x="467" y="139"/>
      <point x="494" y="258"/>
      <point x="532" y="369" type="curve" smooth="yes"/>
      <point x="585" y="523"/>
      <point x="648" y="622"/>
      <point x="722" y="666" type="curve"/>
      <point x="722" y="854" type="line"/>
      <point x="613" y="800"/>
      <point x="518" y="574"/>
      <point x="439" y="176" type="curve"/>
      <point x="400" y="343"/>
      <point x="366" y="467"/>
      <point x="336" y="550" type="curve" smooth="yes"/>
      <point x="275" y="716"/>
      <point x="206" y="815"/>
      <point x="128" y="848" type="curve"/>
      <point x="116" y="644" type="line"/>
      <point x="196" y="605"/>
      <point x="266" y="512"/>
      <point x="327" y="364" type="curve" smooth="yes"/>
      <point x="374" y="248"/>
      <point x="406" y="130"/>
    </contour>
  </outline>
</glyph>
<glyph name="U1e0e" format="2">
  <advance width="1283"/>
  <unicode hex="1E0E"/>
  <note>
U1e0e
</note>
  <outline>
    <contour>
      <point x="206" y="-1" type="curve"/>
      <point x="658" y="0" type="line" smooth="yes"/>
      <point x="794" y="0"/>
      <point x="908" y="55"/>
      <point x="1001" y="164" type="curve" smooth="yes"/>
      <point x="1090" y="268"/>
      <point x="1134" y="389"/>
      <point x="1134" y="527" type="curve" smooth="yes"/>
      <point x="1134" y="675"/>
      <point x="1124" y="774"/>
      <point x="1105" y="825" type="curve" smooth="yes"/>
      <point x="1018" y="1055"/>
      <point x="869" y="1170"/>
      <point x="658" y="1170" type="curve" smooth="yes"/>
      <point x="206" y="1169" type="line" smooth="yes"/>
      <point x="169" y="1169"/>
      <point x="150" y="1155"/>
      <point x="150" y="1127" type="curve" smooth="yes"/>
      <point x="150" y="1098"/>
      <point x="169" y="1084"/>
      <point x="206" y="1084" type="curve" smooth="yes"/>
      <point x="277" y="1084" type="line"/>
      <point x="277" y="84" type="line"/>
      <point x="206" y="84" type="line" smooth="yes"/>
      <point x="169" y="84"/>
      <point x="150" y="70"/>
      <point x="150" y="41" type="curve" smooth="yes"/>
      <point x="150" y="29"/>
      <point x="154" y="19"/>
      <point x="163" y="11" type="curve"/>
      <point x="180" y="4"/>
      <point x="195" y="0"/>
    </contour>
    <contour>
      <point x="404" y="-285" type="curve" smooth="yes"/>
      <point x="895" y="-285" type="line" smooth="yes"/>
      <point x="931" y="-285"/>
      <point x="949" y="-271"/>
      <point x="949" y="-243" type="curve" smooth="yes"/>
      <point x="949" y="-214"/>
      <point x="930" y="-200"/>
      <point x="893" y="-200" type="curve" smooth="yes"/>
      <point x="407" y="-200" type="line" smooth="yes"/>
      <point x="370" y="-200"/>
      <point x="351" y="-214"/>
      <point x="351" y="-243" type="curve" smooth="yes"/>
      <point x="351" y="-271"/>
      <point x="369" y="-285"/>
    </contour>
    <contour>
      <point x="361" y="84" type="line"/>
      <point x="361" y="1086" type="line"/>
      <point x="666" y="1086" type="line" smooth="yes"/>
      <point x="771" y="1086"/>
      <point x="862" y="1041"/>
      <point x="939" y="950" type="curve" smooth="yes"/>
      <point x="1013" y="863"/>
      <point x="1050" y="767"/>
      <point x="1050" y="661" type="curve" smooth="yes"/>
      <point x="1050" y="509" type="line" smooth="yes"/>
      <point x="1050" y="404"/>
      <point x="1013" y="307"/>
      <point x="938" y="220" type="curve" smooth="yes"/>
      <point x="860" y="129"/>
      <point x="769" y="84"/>
      <point x="666" y="84" type="curve" smooth="yes"/>
    </contour>
  </outline>
</glyph>
<glyph name="U1e0f" format="2">
  <advance width="1229"/>
  <unicode hex="1E0F"/>
  <note>
U1e0f
</note>
  <outline>
    <contour>
      <point x="572" y="-45" type="curve" smooth="yes"/>
      <point x="717" y="-45"/>
      <point x="833" y="14"/>
      <point x="919" y="133" type="curve"/>
      <point x="919" y="0" type="line"/>
      <point x="1074" y="0" type="line" smooth="yes"/>
      <point x="1111" y="0"/>
      <point x="1130" y="14"/>
      <point x="1130" y="42" type="curve" smooth="yes"/>
      <point x="1130" y="71"/>
      <point x="1111" y="85"/>
      <point x="1074" y="85" type="curve" smooth="yes"/>
      <point x="1003" y="85" type="line"/>
      <point x="1003" y="1248" type="line"/>
      <point x="848" y="1249" type="line" smooth="yes"/>
      <point x="811" y="1249"/>
      <point x="792" y="1235"/>
      <point x="792" y="1207" type="curve" smooth="yes"/>
      <point x="792" y="1178"/>
      <point x="811" y="1164"/>
      <point x="848" y="1164" type="curve" smooth="yes"/>
      <point x="919" y="1164" type="line"/>
      <point x="918" y="617" type="line"/>
      <point x="832" y="735"/>
      <point x="717" y="794"/>
      <point x="572" y="794" type="curve" smooth="yes"/>
      <point x="337" y="794"/>
      <point x="149" y="608"/>
      <point x="149" y="375" type="curve" smooth="yes"/>
      <point x="149" y="140"/>
      <point x="337" y="-45"/>
    </contour>
    <contour>
      <point x="384" y="-285" type="curve" smooth="yes"/>
      <point x="875" y="-285" type="line" smooth="yes"/>
      <point x="911" y="-285"/>
      <point x="929" y="-271"/>
      <point x="929" y="-243" type="curve" smooth="yes"/>
      <point x="929" y="-214"/>
      <point x="910" y="-200"/>
      <point x="873" y="-200" type="curve" smooth="yes"/>
      <point x="387" y="-200" type="line" smooth="yes"/>
      <point x="350" y="-200"/>
      <point x="331" y="-214"/>
      <point x="331" y="-243" type="curve" smooth="yes"/>
      <point x="331" y="-271"/>
      <point x="349" y="-285"/>
    </contour>
    <contour>
      <point x="573" y="32" type="curve" smooth="yes"/>
      <point x="380" y="32"/>
      <point x="225" y="183"/>
      <point x="225" y="375" type="curve" smooth="yes"/>
      <point x="225" y="567"/>
      <point x="381" y="718"/>
      <point x="573" y="718" type="curve" smooth="yes"/>
      <point x="764" y="718"/>
      <point x="920" y="566"/>
      <point x="920" y="375" type="curve" smooth="yes"/>
      <point x="920" y="183"/>
      <point x="765" y="32"/>
    </contour>
  </outline>
</glyph>
<glyph name="U1e62" format="2">
  <advance width="1229"/>
  <unicode hex="1E62"/>
  <note>
U1e62
</note>
  <outline>
    <contour>
      <point x="619" y="-33" type="curve" smooth="yes"/>
      <point x="733" y="-33"/>
      <point x="830" y="-4"/>
      <point x="910" y="53" type="curve" smooth="yes"/>
      <point x="999" y="117"/>
      <point x="1044" y="204"/>
      <point x="1044" y="314" type="curve" smooth="yes"/>
      <point x="1044" y="448"/>
      <point x="981" y="539"/>
      <point x="854" y="588" type="curve"/>
      <point x="502" y="670" type="line"/>
      <point x="375" y="705"/>
      <point x="312" y="773"/>
      <point x="312" y="873" type="curve" smooth="yes"/>
      <point x="312" y="949"/>
      <point x="345" y="1009"/>
      <point x="410" y="1054" type="curve" smooth="yes"/>
      <point x="467" y="1093"/>
      <point x="536" y="1113"/>
      <point x="615" y="1113" type="curve" smooth="yes"/>
      <point x="703" y="1113"/>
      <point x="774" y="1091"/>
      <point x="829" y="1046" type="curve" smooth="yes"/>
      <point x="872" y="1011"/>
      <point x="898" y="971"/>
      <point x="909" y="927" type="curve" smooth="yes"/>
      <point x="928" y="856" type="line"/>
      <point x="935" y="848"/>
      <point x="945" y="844"/>
      <point x="957" y="844" type="curve" smooth="yes"/>
      <point x="985" y="844"/>
      <point x="999" y="863"/>
      <point x="999" y="900" type="curve" smooth="yes"/>
      <point x="999" y="1114" type="line" smooth="yes"/>
      <point x="999" y="1151"/>
      <point x="985" y="1170"/>
      <point x="957" y="1170" type="curve" smooth="yes"/>
      <point x="929" y="1170"/>
      <point x="915" y="1142"/>
      <point x="915" y="1086" type="curve"/>
      <point x="830" y="1160"/>
      <point x="729" y="1197"/>
      <point x="612" y="1197" type="curve" smooth="yes"/>
      <point x="509" y="1197"/>
      <point x="422" y="1170"/>
      <point x="349" y="1115" type="curve" smooth="yes"/>
      <point x="268" y="1054"/>
      <point x="228" y="974"/>
      <point x="228" y="875" type="curve" smooth="yes"/>
      <point x="228" y="749"/>
      <point x="291" y="663"/>
      <point x="418" y="616" type="curve"/>
      <point x="770" y="531" type="line"/>
      <point x="897" y="493"/>
      <point x="960" y="422"/>
      <point x="960" y="317" type="curve" smooth="yes"/>
      <point x="960" y="232"/>
      <point x="923" y="164"/>
      <point x="849" y="115" type="curve" smooth="yes"/>
      <point x="785" y="72"/>
      <point x="708" y="51"/>
      <point x="619" y="51" type="curve" smooth="yes"/>
      <point x="514" y="51"/>
      <point x="430" y="76"/>
      <point x="368" y="127" type="curve" smooth="yes"/>
      <point x="319" y="166"/>
      <point x="289" y="209"/>
      <point x="276" y="257" type="curve" smooth="yes"/>
      <point x="257" y="333" type="line"/>
      <point x="249" y="341"/>
      <point x="239" y="345"/>
      <point x="227" y="345" type="curve" smooth="yes"/>
      <point x="199" y="345"/>
      <point x="185" y="326"/>
      <point x="185" y="288" type="curve" smooth="yes"/>
      <point x="185" y="56" type="line" smooth="yes"/>
      <point x="185" y="19"/>
      <point x="199" y="0"/>
      <point x="227" y="0" type="curve" smooth="yes"/>
      <point x="250" y="0"/>
      <point x="263" y="13"/>
      <point x="268" y="39" type="curve"/>
      <point x="269" y="104" type="line"/>
      <point x="356" y="13"/>
      <point x="473" y="-33"/>
    </contour>
    <contour>
      <point x="625" y="-354" type="curve" smooth="yes"/>
      <point x="668" y="-354"/>
      <point x="702" y="-320"/>
      <point x="702" y="-277" type="curve" smooth="yes"/>
      <point x="702" y="-234"/>
      <point x="668" y="-200"/>
      <point x="625" y="-200" type="curve" smooth="yes"/>
      <point x="582" y="-200"/>
      <point x="548" y="-234"/>
      <point x="548" y="-277" type="curve" smooth="yes"/>
      <point x="548" y="-320"/>
      <point x="582" y="-354"/>
    </contour>
  </outline>
</glyph>
<glyph name="U1e92" format="2">
  <advance width="1109"/>
  <unicode hex="1E92"/>
  <note>
U1e92
</note>
  <outline>
    <contour>
      <point x="150" y="0" type="line"/>
      <point x="959" y="0" type="line"/>
      <point x="959" y="155" type="line" smooth="yes"/>
      <point x="959" y="192"/>
      <point x="945" y="211"/>
      <point x="917" y="211" type="curve" smooth="yes"/>
      <point x="888" y="211"/>
      <point x="873" y="192"/>
      <point x="874" y="155" type="curve" smooth="yes"/>
      <point x="875" y="84" type="line"/>
      <point x="231" y="84" type="line"/>
      <point x="913" y="1051" type="line"/>
      <point x="913" y="1170" type="line"/>
      <point x="188" y="1170" type="line"/>
      <point x="188" y="1015" type="line" smooth="yes"/>
      <point x="188" y="978"/>
      <point x="202" y="959"/>
      <point x="230" y="959" type="curve" smooth="yes"/>
      <point x="259" y="959"/>
      <point x="274" y="978"/>
      <point x="273" y="1015" type="curve" smooth="yes"/>
      <point x="272" y="1086" type="line"/>
      <point x="832" y="1086" type="line"/>
      <point x="150" y="122" type="line"/>
    </contour>
    <contour>
      <point x="565" y="-354" type="curve" smooth="yes"/>
      <point x="608" y="-354"/>
      <point x="642" y="-320"/>
      <point x="642" y="-277" type="curve" smooth="yes"/>
      <point x="642" y="-234"/>
      <point x="608" y="-200"/>
      <point x="565" y="-200" type="curve" smooth="yes"/>
      <point x="522" y="-200"/>
      <point x="488" y="-234"/>
      <point x="488" y="-277" type="curve" smooth="yes"/>
      <point x="488" y="-320"/>
      <point x="522" y="-354"/>
    </contour>
  </outline>
</glyph>
<glyph name="U200e" format="2">
  <advance width="41"/>
  <unicode hex="200E"/>
  <note>
U200e
</note>
  <outline>
    <contour>
      <point x="0" y="-116" type="line"/>
      <point x="41" y="-116" type="line"/>
      <point x="41" y="1257" type="line"/>
      <point x="199" y="1257" type="line"/>
      <point x="122" y="1180" type="line"/>
      <point x="150" y="1152" type="line"/>
      <point x="273" y="1276" type="line"/>
      <point x="150" y="1400" type="line"/>
      <point x="122" y="1372" type="line"/>
      <point x="196" y="1298" type="line"/>
      <point x="0" y="1298" type="line"/>
    </contour>
  </outline>
</glyph>
<glyph name="U200f" format="2">
  <advance width="41"/>
  <unicode hex="200F"/>
  <note>
U200f
</note>
  <outline>
    <contour>
      <point x="0" y="-116" type="line"/>
      <point x="41" y="-116" type="line"/>
      <point x="41" y="1298" type="line"/>
      <point x="-155" y="1298" type="line"/>
      <point x="-81" y="1372" type="line"/>
      <point x="-109" y="1400" type="line"/>
      <point x="-233" y="1276" type="line"/>
      <point x="-109" y="1152" type="line"/>
      <point x="-81" y="1180" type="line"/>
      <point x="-159" y="1257" type="line"/>
      <point x="0" y="1257" type="line"/>
    </contour>
  </outline>
</glyph>
